<mxfile host="65bd71144e">
    <diagram id="-EMUF0InoznxgHKb_COv" name="SchemaVinograd">
        <mxGraphModel dx="880" dy="627" grid="1" gridSize="10" guides="1" tooltips="1" connect="1" arrows="1" fold="1" page="1" pageScale="1" pageWidth="827" pageHeight="1169" math="0" shadow="0">
            <root>
                <mxCell id="G2HblqPfMN18RfDfhi2Z-0"/>
                <mxCell id="G2HblqPfMN18RfDfhi2Z-1" parent="G2HblqPfMN18RfDfhi2Z-0"/>
                <mxCell id="QbFyEuM2jNBCQfaLSNPx-0" style="edgeStyle=none;html=1;exitX=0.5;exitY=1;exitDx=0;exitDy=0;entryX=0.5;entryY=0;entryDx=0;entryDy=0;strokeWidth=3;endArrow=none;endFill=0;" parent="G2HblqPfMN18RfDfhi2Z-1" source="QbFyEuM2jNBCQfaLSNPx-1" target="QbFyEuM2jNBCQfaLSNPx-4" edge="1">
                    <mxGeometry relative="1" as="geometry"/>
                </mxCell>
                <mxCell id="QbFyEuM2jNBCQfaLSNPx-1" value="&lt;font style=&quot;font-size: 20px&quot;&gt;Начало&lt;/font&gt;" style="rounded=1;whiteSpace=wrap;html=1;strokeWidth=3;arcSize=50;" parent="G2HblqPfMN18RfDfhi2Z-1" vertex="1">
                    <mxGeometry x="60" y="20" width="200" height="80" as="geometry"/>
                </mxCell>
                <mxCell id="QbFyEuM2jNBCQfaLSNPx-2" value="&lt;font style=&quot;font-size: 20px&quot;&gt;Конец&lt;/font&gt;" style="rounded=1;whiteSpace=wrap;html=1;strokeWidth=3;arcSize=50;" parent="G2HblqPfMN18RfDfhi2Z-1" vertex="1">
                    <mxGeometry x="663" y="740" width="200" height="80" as="geometry"/>
                </mxCell>
                <mxCell id="QbFyEuM2jNBCQfaLSNPx-3" style="edgeStyle=none;html=1;exitX=0.5;exitY=1;exitDx=0;exitDy=0;endArrow=none;endFill=0;strokeWidth=3;" parent="G2HblqPfMN18RfDfhi2Z-1" source="QbFyEuM2jNBCQfaLSNPx-4" edge="1">
                    <mxGeometry relative="1" as="geometry">
                        <mxPoint x="160" y="204" as="targetPoint"/>
                    </mxGeometry>
                </mxCell>
                <mxCell id="QbFyEuM2jNBCQfaLSNPx-4" value="&lt;span style=&quot;font-size: 20px&quot;&gt;Матрицы &lt;br&gt;m1[L][M] и&lt;br&gt;m2[M][N]&lt;/span&gt;" style="shape=parallelogram;perimeter=parallelogramPerimeter;whiteSpace=wrap;html=1;fixedSize=1;strokeWidth=3;" parent="G2HblqPfMN18RfDfhi2Z-1" vertex="1">
                    <mxGeometry x="60" y="110" width="200" height="80" as="geometry"/>
                </mxCell>
                <mxCell id="QbFyEuM2jNBCQfaLSNPx-25" style="edgeStyle=none;html=1;exitX=0.5;exitY=1;exitDx=0;exitDy=0;endArrow=none;endFill=0;strokeWidth=3;" parent="G2HblqPfMN18RfDfhi2Z-1" source="QbFyEuM2jNBCQfaLSNPx-6" target="QbFyEuM2jNBCQfaLSNPx-18" edge="1">
                    <mxGeometry relative="1" as="geometry"/>
                </mxCell>
                <mxCell id="QbFyEuM2jNBCQfaLSNPx-6" value="&lt;font style=&quot;font-size: 20px&quot;&gt;MulH[i] =&amp;nbsp;MulH[i]+&lt;br&gt;&amp;nbsp;m1[i][2*j] *&amp;nbsp;&lt;br&gt;m1[i][2*j+1]&lt;/font&gt;" style="rounded=0;whiteSpace=wrap;html=1;strokeWidth=3;" parent="G2HblqPfMN18RfDfhi2Z-1" vertex="1">
                    <mxGeometry x="60" y="380" width="200" height="80" as="geometry"/>
                </mxCell>
                <mxCell id="QbFyEuM2jNBCQfaLSNPx-7" style="edgeStyle=none;html=1;exitX=0.5;exitY=1;exitDx=0;exitDy=0;entryX=0.5;entryY=0;entryDx=0;entryDy=0;endArrow=none;endFill=0;strokeWidth=3;" parent="G2HblqPfMN18RfDfhi2Z-1" source="QbFyEuM2jNBCQfaLSNPx-8" target="QbFyEuM2jNBCQfaLSNPx-10" edge="1">
                    <mxGeometry relative="1" as="geometry"/>
                </mxCell>
                <mxCell id="QbFyEuM2jNBCQfaLSNPx-8" value="&lt;font style=&quot;font-size: 20px&quot;&gt;Цикл i = 0; i &amp;lt; L&lt;br&gt;&lt;/font&gt;" style="shape=loopLimit;whiteSpace=wrap;html=1;strokeWidth=3;size=40;" parent="G2HblqPfMN18RfDfhi2Z-1" vertex="1">
                    <mxGeometry x="60" y="200" width="200" height="80" as="geometry"/>
                </mxCell>
                <mxCell id="QbFyEuM2jNBCQfaLSNPx-24" style="edgeStyle=none;html=1;exitX=0.5;exitY=1;exitDx=0;exitDy=0;entryX=0.5;entryY=0;entryDx=0;entryDy=0;endArrow=none;endFill=0;strokeWidth=3;" parent="G2HblqPfMN18RfDfhi2Z-1" source="QbFyEuM2jNBCQfaLSNPx-10" target="QbFyEuM2jNBCQfaLSNPx-6" edge="1">
                    <mxGeometry relative="1" as="geometry"/>
                </mxCell>
                <mxCell id="QbFyEuM2jNBCQfaLSNPx-10" value="&lt;font style=&quot;font-size: 20px&quot;&gt;Цикл j = 0; j &amp;lt; M/2&lt;br&gt;&lt;/font&gt;" style="shape=loopLimit;whiteSpace=wrap;html=1;strokeWidth=3;size=40;" parent="G2HblqPfMN18RfDfhi2Z-1" vertex="1">
                    <mxGeometry x="60" y="290" width="200" height="80" as="geometry"/>
                </mxCell>
                <mxCell id="QbFyEuM2jNBCQfaLSNPx-13" style="edgeStyle=none;html=1;exitX=0.5;exitY=1;exitDx=0;exitDy=0;entryX=0.5;entryY=0;entryDx=0;entryDy=0;endArrow=none;endFill=0;strokeWidth=3;" parent="G2HblqPfMN18RfDfhi2Z-1" source="QbFyEuM2jNBCQfaLSNPx-14" target="QbFyEuM2jNBCQfaLSNPx-2" edge="1">
                    <mxGeometry relative="1" as="geometry"/>
                </mxCell>
                <mxCell id="QbFyEuM2jNBCQfaLSNPx-14" value="&lt;span style=&quot;font-size: 20px&quot;&gt;m3[L][N]&lt;/span&gt;" style="shape=parallelogram;perimeter=parallelogramPerimeter;whiteSpace=wrap;html=1;fixedSize=1;strokeWidth=3;" parent="G2HblqPfMN18RfDfhi2Z-1" vertex="1">
                    <mxGeometry x="663" y="650" width="200" height="80" as="geometry"/>
                </mxCell>
                <mxCell id="QbFyEuM2jNBCQfaLSNPx-17" style="edgeStyle=none;html=1;exitX=0.5;exitY=0;exitDx=0;exitDy=0;entryX=0.5;entryY=1;entryDx=0;entryDy=0;endArrow=none;endFill=0;strokeWidth=3;" parent="G2HblqPfMN18RfDfhi2Z-1" source="QbFyEuM2jNBCQfaLSNPx-18" target="QbFyEuM2jNBCQfaLSNPx-20" edge="1">
                    <mxGeometry relative="1" as="geometry"/>
                </mxCell>
                <mxCell id="QbFyEuM2jNBCQfaLSNPx-18" value="&lt;font style=&quot;font-size: 20px&quot;&gt;&lt;br&gt;&lt;/font&gt;" style="shape=loopLimit;whiteSpace=wrap;html=1;strokeWidth=3;size=40;rotation=-180;" parent="G2HblqPfMN18RfDfhi2Z-1" vertex="1">
                    <mxGeometry x="60" y="470" width="200" height="80" as="geometry"/>
                </mxCell>
                <mxCell id="QbFyEuM2jNBCQfaLSNPx-38" style="edgeStyle=none;html=1;exitX=0.5;exitY=0;exitDx=0;exitDy=0;entryX=0.5;entryY=0;entryDx=0;entryDy=0;endArrow=none;endFill=0;strokeWidth=3;" parent="G2HblqPfMN18RfDfhi2Z-1" source="QbFyEuM2jNBCQfaLSNPx-20" target="QbFyEuM2jNBCQfaLSNPx-30" edge="1">
                    <mxGeometry relative="1" as="geometry"/>
                </mxCell>
                <mxCell id="QbFyEuM2jNBCQfaLSNPx-20" value="&lt;font style=&quot;font-size: 20px&quot;&gt;&lt;br&gt;&lt;/font&gt;" style="shape=loopLimit;whiteSpace=wrap;html=1;strokeWidth=3;size=40;rotation=-180;" parent="G2HblqPfMN18RfDfhi2Z-1" vertex="1">
                    <mxGeometry x="60" y="560" width="200" height="80" as="geometry"/>
                </mxCell>
                <mxCell id="QbFyEuM2jNBCQfaLSNPx-21" value="&lt;font style=&quot;font-size: 20px&quot;&gt;i++&lt;/font&gt;" style="text;html=1;strokeColor=none;fillColor=none;align=center;verticalAlign=middle;whiteSpace=wrap;rounded=0;" parent="G2HblqPfMN18RfDfhi2Z-1" vertex="1">
                    <mxGeometry x="140" y="590" width="40" height="20" as="geometry"/>
                </mxCell>
                <mxCell id="QbFyEuM2jNBCQfaLSNPx-22" value="&lt;font style=&quot;font-size: 20px&quot;&gt;j++&lt;/font&gt;" style="text;html=1;strokeColor=none;fillColor=none;align=center;verticalAlign=middle;whiteSpace=wrap;rounded=0;" parent="G2HblqPfMN18RfDfhi2Z-1" vertex="1">
                    <mxGeometry x="140" y="500" width="40" height="20" as="geometry"/>
                </mxCell>
                <mxCell id="QbFyEuM2jNBCQfaLSNPx-27" style="edgeStyle=none;html=1;exitX=0.5;exitY=1;exitDx=0;exitDy=0;endArrow=none;endFill=0;strokeWidth=3;" parent="G2HblqPfMN18RfDfhi2Z-1" source="QbFyEuM2jNBCQfaLSNPx-28" target="QbFyEuM2jNBCQfaLSNPx-34" edge="1">
                    <mxGeometry relative="1" as="geometry"/>
                </mxCell>
                <mxCell id="QbFyEuM2jNBCQfaLSNPx-28" value="&lt;span style=&quot;font-size: 20px&quot;&gt;MulV[i] =&lt;/span&gt;&lt;span style=&quot;font-size: 20px&quot;&gt;MulV[i] +&lt;/span&gt;&lt;span style=&quot;font-size: 20px&quot;&gt;&lt;br&gt;m1&lt;/span&gt;&lt;span style=&quot;font-size: 20px&quot;&gt;[2*j]&lt;/span&gt;&lt;span style=&quot;font-size: 20px&quot;&gt;[i] *&lt;/span&gt;&lt;span style=&quot;font-size: 20px&quot;&gt;&amp;nbsp;m1&lt;/span&gt;&lt;span style=&quot;font-size: 20px&quot;&gt;[2*j+1]&lt;/span&gt;&lt;span style=&quot;font-size: 20px&quot;&gt;[i]&lt;/span&gt;" style="rounded=0;whiteSpace=wrap;html=1;strokeWidth=3;" parent="G2HblqPfMN18RfDfhi2Z-1" vertex="1">
                    <mxGeometry x="60" y="830" width="200" height="80" as="geometry"/>
                </mxCell>
                <mxCell id="QbFyEuM2jNBCQfaLSNPx-29" style="edgeStyle=none;html=1;exitX=0.5;exitY=1;exitDx=0;exitDy=0;entryX=0.5;entryY=0;entryDx=0;entryDy=0;endArrow=none;endFill=0;strokeWidth=3;" parent="G2HblqPfMN18RfDfhi2Z-1" source="QbFyEuM2jNBCQfaLSNPx-30" target="QbFyEuM2jNBCQfaLSNPx-32" edge="1">
                    <mxGeometry relative="1" as="geometry"/>
                </mxCell>
                <mxCell id="QbFyEuM2jNBCQfaLSNPx-30" value="&lt;font style=&quot;font-size: 20px&quot;&gt;Цикл i = 0; i &amp;lt; N&lt;br&gt;&lt;/font&gt;" style="shape=loopLimit;whiteSpace=wrap;html=1;strokeWidth=3;size=40;" parent="G2HblqPfMN18RfDfhi2Z-1" vertex="1">
                    <mxGeometry x="60" y="650" width="200" height="80" as="geometry"/>
                </mxCell>
                <mxCell id="QbFyEuM2jNBCQfaLSNPx-31" style="edgeStyle=none;html=1;exitX=0.5;exitY=1;exitDx=0;exitDy=0;entryX=0.5;entryY=0;entryDx=0;entryDy=0;endArrow=none;endFill=0;strokeWidth=3;" parent="G2HblqPfMN18RfDfhi2Z-1" source="QbFyEuM2jNBCQfaLSNPx-32" target="QbFyEuM2jNBCQfaLSNPx-28" edge="1">
                    <mxGeometry relative="1" as="geometry"/>
                </mxCell>
                <mxCell id="QbFyEuM2jNBCQfaLSNPx-32" value="&lt;font style=&quot;font-size: 20px&quot;&gt;Цикл j = 0; j &amp;lt; M/2&lt;br&gt;&lt;/font&gt;" style="shape=loopLimit;whiteSpace=wrap;html=1;strokeWidth=3;size=40;" parent="G2HblqPfMN18RfDfhi2Z-1" vertex="1">
                    <mxGeometry x="60" y="740" width="200" height="80" as="geometry"/>
                </mxCell>
                <mxCell id="QbFyEuM2jNBCQfaLSNPx-33" style="edgeStyle=none;html=1;exitX=0.5;exitY=0;exitDx=0;exitDy=0;entryX=0.5;entryY=1;entryDx=0;entryDy=0;endArrow=none;endFill=0;strokeWidth=3;" parent="G2HblqPfMN18RfDfhi2Z-1" source="QbFyEuM2jNBCQfaLSNPx-34" target="QbFyEuM2jNBCQfaLSNPx-35" edge="1">
                    <mxGeometry relative="1" as="geometry"/>
                </mxCell>
                <mxCell id="QbFyEuM2jNBCQfaLSNPx-34" value="&lt;font style=&quot;font-size: 20px&quot;&gt;&lt;br&gt;&lt;/font&gt;" style="shape=loopLimit;whiteSpace=wrap;html=1;strokeWidth=3;size=40;rotation=-180;" parent="G2HblqPfMN18RfDfhi2Z-1" vertex="1">
                    <mxGeometry x="60" y="920" width="200" height="80" as="geometry"/>
                </mxCell>
                <mxCell id="QbFyEuM2jNBCQfaLSNPx-35" value="&lt;font style=&quot;font-size: 20px&quot;&gt;&lt;br&gt;&lt;/font&gt;" style="shape=loopLimit;whiteSpace=wrap;html=1;strokeWidth=3;size=40;rotation=-180;" parent="G2HblqPfMN18RfDfhi2Z-1" vertex="1">
                    <mxGeometry x="60" y="1010" width="200" height="80" as="geometry"/>
                </mxCell>
                <mxCell id="QbFyEuM2jNBCQfaLSNPx-36" value="&lt;font style=&quot;font-size: 20px&quot;&gt;i++&lt;/font&gt;" style="text;html=1;strokeColor=none;fillColor=none;align=center;verticalAlign=middle;whiteSpace=wrap;rounded=0;" parent="G2HblqPfMN18RfDfhi2Z-1" vertex="1">
                    <mxGeometry x="140" y="1040" width="40" height="20" as="geometry"/>
                </mxCell>
                <mxCell id="QbFyEuM2jNBCQfaLSNPx-37" value="&lt;font style=&quot;font-size: 20px&quot;&gt;j++&lt;/font&gt;" style="text;html=1;strokeColor=none;fillColor=none;align=center;verticalAlign=middle;whiteSpace=wrap;rounded=0;" parent="G2HblqPfMN18RfDfhi2Z-1" vertex="1">
                    <mxGeometry x="140" y="950" width="40" height="20" as="geometry"/>
                </mxCell>
                <mxCell id="QbFyEuM2jNBCQfaLSNPx-41" value="&lt;span style=&quot;font-size: 20px&quot;&gt;m3[i][j] = -MulH[i] &lt;br&gt;-MulV[j]&lt;/span&gt;" style="rounded=0;whiteSpace=wrap;html=1;strokeWidth=3;" parent="G2HblqPfMN18RfDfhi2Z-1" vertex="1">
                    <mxGeometry x="340" y="291" width="200" height="80" as="geometry"/>
                </mxCell>
                <mxCell id="QbFyEuM2jNBCQfaLSNPx-42" style="edgeStyle=none;html=1;exitX=0.5;exitY=1;exitDx=0;exitDy=0;entryX=0.5;entryY=0;entryDx=0;entryDy=0;endArrow=none;endFill=0;strokeWidth=3;" parent="G2HblqPfMN18RfDfhi2Z-1" source="QbFyEuM2jNBCQfaLSNPx-43" target="QbFyEuM2jNBCQfaLSNPx-45" edge="1">
                    <mxGeometry relative="1" as="geometry"/>
                </mxCell>
                <mxCell id="QbFyEuM2jNBCQfaLSNPx-76" style="edgeStyle=none;html=1;exitX=0.5;exitY=0;exitDx=0;exitDy=0;entryX=0.5;entryY=1;entryDx=0;entryDy=0;endArrow=none;endFill=0;strokeWidth=3;" parent="G2HblqPfMN18RfDfhi2Z-1" source="QbFyEuM2jNBCQfaLSNPx-43" target="QbFyEuM2jNBCQfaLSNPx-73" edge="1">
                    <mxGeometry relative="1" as="geometry"/>
                </mxCell>
                <mxCell id="QbFyEuM2jNBCQfaLSNPx-43" value="&lt;font style=&quot;font-size: 20px&quot;&gt;Цикл i = 0; i &amp;lt; N&lt;br&gt;&lt;/font&gt;" style="shape=loopLimit;whiteSpace=wrap;html=1;strokeWidth=3;size=40;" parent="G2HblqPfMN18RfDfhi2Z-1" vertex="1">
                    <mxGeometry x="340" y="110" width="200" height="80" as="geometry"/>
                </mxCell>
                <mxCell id="QbFyEuM2jNBCQfaLSNPx-44" style="edgeStyle=none;html=1;exitX=0.5;exitY=1;exitDx=0;exitDy=0;entryX=0.5;entryY=0;entryDx=0;entryDy=0;endArrow=none;endFill=0;strokeWidth=3;" parent="G2HblqPfMN18RfDfhi2Z-1" source="QbFyEuM2jNBCQfaLSNPx-45" target="QbFyEuM2jNBCQfaLSNPx-41" edge="1">
                    <mxGeometry relative="1" as="geometry"/>
                </mxCell>
                <mxCell id="QbFyEuM2jNBCQfaLSNPx-45" value="&lt;font style=&quot;font-size: 20px&quot;&gt;Цикл j = 0; j &amp;lt; L&lt;br&gt;&lt;/font&gt;" style="shape=loopLimit;whiteSpace=wrap;html=1;strokeWidth=3;size=40;" parent="G2HblqPfMN18RfDfhi2Z-1" vertex="1">
                    <mxGeometry x="340" y="200" width="200" height="80" as="geometry"/>
                </mxCell>
                <mxCell id="QbFyEuM2jNBCQfaLSNPx-46" style="edgeStyle=none;html=1;exitX=0.5;exitY=0;exitDx=0;exitDy=0;entryX=0.5;entryY=1;entryDx=0;entryDy=0;endArrow=none;endFill=0;strokeWidth=3;" parent="G2HblqPfMN18RfDfhi2Z-1" source="QbFyEuM2jNBCQfaLSNPx-47" target="QbFyEuM2jNBCQfaLSNPx-48" edge="1">
                    <mxGeometry relative="1" as="geometry"/>
                </mxCell>
                <mxCell id="QbFyEuM2jNBCQfaLSNPx-47" value="&lt;font style=&quot;font-size: 20px&quot;&gt;&lt;br&gt;&lt;/font&gt;" style="shape=loopLimit;whiteSpace=wrap;html=1;strokeWidth=3;size=40;rotation=-180;" parent="G2HblqPfMN18RfDfhi2Z-1" vertex="1">
                    <mxGeometry x="340" y="650" width="200" height="80" as="geometry"/>
                </mxCell>
                <mxCell id="xm8WO4JMe7OpRyyLNQ5k-19" style="edgeStyle=none;html=1;exitX=0.5;exitY=0;exitDx=0;exitDy=0;entryX=0.5;entryY=0;entryDx=0;entryDy=0;endArrow=none;endFill=0;strokeWidth=3;" parent="G2HblqPfMN18RfDfhi2Z-1" source="QbFyEuM2jNBCQfaLSNPx-48" target="xm8WO4JMe7OpRyyLNQ5k-18" edge="1">
                    <mxGeometry relative="1" as="geometry"/>
                </mxCell>
                <mxCell id="QbFyEuM2jNBCQfaLSNPx-48" value="&lt;font style=&quot;font-size: 20px&quot;&gt;&lt;br&gt;&lt;/font&gt;" style="shape=loopLimit;whiteSpace=wrap;html=1;strokeWidth=3;size=40;rotation=-180;" parent="G2HblqPfMN18RfDfhi2Z-1" vertex="1">
                    <mxGeometry x="340" y="740" width="200" height="80" as="geometry"/>
                </mxCell>
                <mxCell id="QbFyEuM2jNBCQfaLSNPx-49" value="&lt;font style=&quot;font-size: 20px&quot;&gt;i++&lt;/font&gt;" style="text;html=1;strokeColor=none;fillColor=none;align=center;verticalAlign=middle;whiteSpace=wrap;rounded=0;" parent="G2HblqPfMN18RfDfhi2Z-1" vertex="1">
                    <mxGeometry x="420" y="770" width="40" height="20" as="geometry"/>
                </mxCell>
                <mxCell id="QbFyEuM2jNBCQfaLSNPx-50" value="&lt;font style=&quot;font-size: 20px&quot;&gt;j++&lt;/font&gt;" style="text;html=1;strokeColor=none;fillColor=none;align=center;verticalAlign=middle;whiteSpace=wrap;rounded=0;" parent="G2HblqPfMN18RfDfhi2Z-1" vertex="1">
                    <mxGeometry x="420" y="680" width="40" height="20" as="geometry"/>
                </mxCell>
                <mxCell id="QbFyEuM2jNBCQfaLSNPx-57" style="edgeStyle=none;html=1;exitX=0.5;exitY=1;exitDx=0;exitDy=0;entryX=0.5;entryY=0;entryDx=0;entryDy=0;endArrow=none;endFill=0;strokeWidth=3;" parent="G2HblqPfMN18RfDfhi2Z-1" source="QbFyEuM2jNBCQfaLSNPx-53" target="QbFyEuM2jNBCQfaLSNPx-56" edge="1">
                    <mxGeometry relative="1" as="geometry"/>
                </mxCell>
                <mxCell id="QbFyEuM2jNBCQfaLSNPx-69" value="" style="edgeStyle=none;html=1;endArrow=none;endFill=0;strokeWidth=3;" parent="G2HblqPfMN18RfDfhi2Z-1" target="QbFyEuM2jNBCQfaLSNPx-41" edge="1">
                    <mxGeometry relative="1" as="geometry">
                        <mxPoint x="440" y="411" as="sourcePoint"/>
                    </mxGeometry>
                </mxCell>
                <mxCell id="QbFyEuM2jNBCQfaLSNPx-53" value="&lt;font style=&quot;font-size: 20px&quot;&gt;Цикл k = 0; k &amp;lt; M/2&lt;br&gt;&lt;/font&gt;" style="shape=loopLimit;whiteSpace=wrap;html=1;strokeWidth=3;size=40;" parent="G2HblqPfMN18RfDfhi2Z-1" vertex="1">
                    <mxGeometry x="340" y="380" width="200" height="80" as="geometry"/>
                </mxCell>
                <mxCell id="QbFyEuM2jNBCQfaLSNPx-58" style="edgeStyle=none;html=1;exitX=0.5;exitY=1;exitDx=0;exitDy=0;entryX=0.5;entryY=1;entryDx=0;entryDy=0;endArrow=none;endFill=0;strokeWidth=3;" parent="G2HblqPfMN18RfDfhi2Z-1" source="QbFyEuM2jNBCQfaLSNPx-54" target="QbFyEuM2jNBCQfaLSNPx-56" edge="1">
                    <mxGeometry relative="1" as="geometry"/>
                </mxCell>
                <mxCell id="QbFyEuM2jNBCQfaLSNPx-54" value="&lt;font style=&quot;font-size: 20px&quot;&gt;&lt;br&gt;&lt;/font&gt;" style="shape=loopLimit;whiteSpace=wrap;html=1;strokeWidth=3;size=40;rotation=-180;" parent="G2HblqPfMN18RfDfhi2Z-1" vertex="1">
                    <mxGeometry x="340" y="560" width="200" height="80" as="geometry"/>
                </mxCell>
                <mxCell id="QbFyEuM2jNBCQfaLSNPx-55" value="&lt;font style=&quot;font-size: 20px&quot;&gt;k++&lt;/font&gt;" style="text;html=1;strokeColor=none;fillColor=none;align=center;verticalAlign=middle;whiteSpace=wrap;rounded=0;" parent="G2HblqPfMN18RfDfhi2Z-1" vertex="1">
                    <mxGeometry x="420" y="590" width="40" height="20" as="geometry"/>
                </mxCell>
                <mxCell id="QbFyEuM2jNBCQfaLSNPx-56" value="&lt;font style=&quot;font-size: 17px&quot;&gt;m3[i][j] =&amp;nbsp;m3[i][j]+&lt;br&gt;&amp;nbsp;(m1[i][2*k] + m2[2*k+1][j]) *(m1[i][2*k+1] +m2[2*k][j])&lt;/font&gt;" style="rounded=0;whiteSpace=wrap;html=1;strokeWidth=3;" parent="G2HblqPfMN18RfDfhi2Z-1" vertex="1">
                    <mxGeometry x="340" y="470" width="200" height="80" as="geometry"/>
                </mxCell>
                <mxCell id="QbFyEuM2jNBCQfaLSNPx-68" style="edgeStyle=none;html=1;exitX=0.5;exitY=0;exitDx=0;exitDy=0;entryX=0.5;entryY=0;entryDx=0;entryDy=0;endArrow=none;endFill=0;strokeWidth=3;" parent="G2HblqPfMN18RfDfhi2Z-1" target="QbFyEuM2jNBCQfaLSNPx-54" edge="1">
                    <mxGeometry relative="1" as="geometry">
                        <mxPoint x="439.9999999999998" y="650" as="sourcePoint"/>
                    </mxGeometry>
                </mxCell>
                <mxCell id="QbFyEuM2jNBCQfaLSNPx-75" style="edgeStyle=none;html=1;exitX=0.5;exitY=0;exitDx=0;exitDy=0;entryX=0.5;entryY=0;entryDx=0;entryDy=0;endArrow=none;endFill=0;strokeWidth=3;" parent="G2HblqPfMN18RfDfhi2Z-1" source="QbFyEuM2jNBCQfaLSNPx-72" target="QbFyEuM2jNBCQfaLSNPx-35" edge="1">
                    <mxGeometry relative="1" as="geometry"/>
                </mxCell>
                <mxCell id="QbFyEuM2jNBCQfaLSNPx-72" value="&lt;font style=&quot;font-size: 20px&quot;&gt;A&lt;/font&gt;" style="ellipse;whiteSpace=wrap;html=1;aspect=fixed;strokeWidth=3;" parent="G2HblqPfMN18RfDfhi2Z-1" vertex="1">
                    <mxGeometry x="120" y="1100" width="80" height="80" as="geometry"/>
                </mxCell>
                <mxCell id="QbFyEuM2jNBCQfaLSNPx-73" value="&lt;font style=&quot;font-size: 20px&quot;&gt;A&lt;/font&gt;" style="ellipse;whiteSpace=wrap;html=1;aspect=fixed;strokeWidth=3;" parent="G2HblqPfMN18RfDfhi2Z-1" vertex="1">
                    <mxGeometry x="400" y="20" width="80" height="80" as="geometry"/>
                </mxCell>
                <mxCell id="xm8WO4JMe7OpRyyLNQ5k-16" style="edgeStyle=none;html=1;exitX=0.5;exitY=1;exitDx=0;exitDy=0;entryX=0.5;entryY=1;entryDx=0;entryDy=0;strokeWidth=3;endArrow=none;endFill=0;" parent="G2HblqPfMN18RfDfhi2Z-1" source="xm8WO4JMe7OpRyyLNQ5k-1" target="xm8WO4JMe7OpRyyLNQ5k-12" edge="1">
                    <mxGeometry relative="1" as="geometry"/>
                </mxCell>
                <mxCell id="xm8WO4JMe7OpRyyLNQ5k-1" value="&lt;span style=&quot;font-size: 20px&quot;&gt;m3[i][j] =&amp;nbsp;&lt;/span&gt;&lt;span style=&quot;font-size: 20px&quot;&gt;m3[i][j] +&lt;/span&gt;&lt;span style=&quot;font-size: 20px&quot;&gt;&lt;br&gt;m1[i][M-1] * m2[M-1][j]&lt;/span&gt;&lt;span style=&quot;font-size: 20px&quot;&gt;&lt;br&gt;&lt;/span&gt;" style="rounded=0;whiteSpace=wrap;html=1;strokeWidth=3;" parent="G2HblqPfMN18RfDfhi2Z-1" vertex="1">
                    <mxGeometry x="843" y="350" width="200" height="80" as="geometry"/>
                </mxCell>
                <mxCell id="xm8WO4JMe7OpRyyLNQ5k-3" style="edgeStyle=none;html=1;exitX=1;exitY=0.5;exitDx=0;exitDy=0;endArrow=blockThin;endFill=1;strokeWidth=3;entryX=0.5;entryY=0;entryDx=0;entryDy=0;entryPerimeter=0;" parent="G2HblqPfMN18RfDfhi2Z-1" source="xm8WO4JMe7OpRyyLNQ5k-4" target="xm8WO4JMe7OpRyyLNQ5k-8" edge="1">
                    <mxGeometry relative="1" as="geometry">
                        <Array as="points">
                            <mxPoint x="943" y="150"/>
                        </Array>
                        <mxPoint x="953" y="170" as="targetPoint"/>
                    </mxGeometry>
                </mxCell>
                <mxCell id="xm8WO4JMe7OpRyyLNQ5k-22" style="edgeStyle=none;html=1;exitX=0;exitY=0.5;exitDx=0;exitDy=0;endArrow=none;endFill=0;strokeWidth=3;entryX=0.5;entryY=0;entryDx=0;entryDy=0;" parent="G2HblqPfMN18RfDfhi2Z-1" source="xm8WO4JMe7OpRyyLNQ5k-4" target="QbFyEuM2jNBCQfaLSNPx-14" edge="1">
                    <mxGeometry relative="1" as="geometry">
                        <mxPoint x="743" y="640" as="targetPoint"/>
                        <Array as="points">
                            <mxPoint x="613" y="150"/>
                            <mxPoint x="613" y="640"/>
                            <mxPoint x="763" y="640"/>
                        </Array>
                    </mxGeometry>
                </mxCell>
                <mxCell id="xm8WO4JMe7OpRyyLNQ5k-4" value="&lt;font style=&quot;font-size: 20px&quot;&gt;M - нечетное&lt;/font&gt;" style="rhombus;whiteSpace=wrap;html=1;strokeWidth=3;" parent="G2HblqPfMN18RfDfhi2Z-1" vertex="1">
                    <mxGeometry x="643" y="110" width="200" height="80" as="geometry"/>
                </mxCell>
                <mxCell id="xm8WO4JMe7OpRyyLNQ5k-5" value="&lt;font style=&quot;font-size: 20px&quot;&gt;Да&lt;/font&gt;" style="text;html=1;strokeColor=none;fillColor=none;align=center;verticalAlign=middle;whiteSpace=wrap;rounded=0;" parent="G2HblqPfMN18RfDfhi2Z-1" vertex="1">
                    <mxGeometry x="896" y="120" width="40" height="20" as="geometry"/>
                </mxCell>
                <mxCell id="xm8WO4JMe7OpRyyLNQ5k-6" style="edgeStyle=none;html=1;exitX=0.5;exitY=1;exitDx=0;exitDy=0;entryX=0.5;entryY=0;entryDx=0;entryDy=0;endArrow=none;endFill=0;strokeWidth=3;" parent="G2HblqPfMN18RfDfhi2Z-1" source="xm8WO4JMe7OpRyyLNQ5k-8" target="xm8WO4JMe7OpRyyLNQ5k-10" edge="1">
                    <mxGeometry relative="1" as="geometry"/>
                </mxCell>
                <mxCell id="xm8WO4JMe7OpRyyLNQ5k-8" value="&lt;font style=&quot;font-size: 20px&quot;&gt;Цикл i = 0; i &amp;lt; N&lt;br&gt;&lt;/font&gt;" style="shape=loopLimit;whiteSpace=wrap;html=1;strokeWidth=3;size=40;" parent="G2HblqPfMN18RfDfhi2Z-1" vertex="1">
                    <mxGeometry x="843" y="170" width="200" height="80" as="geometry"/>
                </mxCell>
                <mxCell id="xm8WO4JMe7OpRyyLNQ5k-9" style="edgeStyle=none;html=1;exitX=0.5;exitY=1;exitDx=0;exitDy=0;entryX=0.5;entryY=0;entryDx=0;entryDy=0;endArrow=none;endFill=0;strokeWidth=3;" parent="G2HblqPfMN18RfDfhi2Z-1" source="xm8WO4JMe7OpRyyLNQ5k-10" target="xm8WO4JMe7OpRyyLNQ5k-1" edge="1">
                    <mxGeometry relative="1" as="geometry">
                        <mxPoint x="943" y="351" as="targetPoint"/>
                    </mxGeometry>
                </mxCell>
                <mxCell id="xm8WO4JMe7OpRyyLNQ5k-10" value="&lt;font style=&quot;font-size: 20px&quot;&gt;Цикл j = 0; j &amp;lt; L&lt;br&gt;&lt;/font&gt;" style="shape=loopLimit;whiteSpace=wrap;html=1;strokeWidth=3;size=40;" parent="G2HblqPfMN18RfDfhi2Z-1" vertex="1">
                    <mxGeometry x="843" y="260" width="200" height="80" as="geometry"/>
                </mxCell>
                <mxCell id="xm8WO4JMe7OpRyyLNQ5k-11" style="edgeStyle=none;html=1;exitX=0.5;exitY=0;exitDx=0;exitDy=0;entryX=0.5;entryY=1;entryDx=0;entryDy=0;endArrow=none;endFill=0;strokeWidth=3;" parent="G2HblqPfMN18RfDfhi2Z-1" source="xm8WO4JMe7OpRyyLNQ5k-12" target="xm8WO4JMe7OpRyyLNQ5k-13" edge="1">
                    <mxGeometry relative="1" as="geometry"/>
                </mxCell>
                <mxCell id="xm8WO4JMe7OpRyyLNQ5k-12" value="&lt;font style=&quot;font-size: 20px&quot;&gt;&lt;br&gt;&lt;/font&gt;" style="shape=loopLimit;whiteSpace=wrap;html=1;strokeWidth=3;size=40;rotation=-180;" parent="G2HblqPfMN18RfDfhi2Z-1" vertex="1">
                    <mxGeometry x="843" y="440" width="200" height="80" as="geometry"/>
                </mxCell>
                <mxCell id="xm8WO4JMe7OpRyyLNQ5k-23" style="edgeStyle=none;html=1;exitX=0.5;exitY=0;exitDx=0;exitDy=0;entryX=0.5;entryY=0;entryDx=0;entryDy=0;endArrow=none;endFill=0;strokeWidth=3;" parent="G2HblqPfMN18RfDfhi2Z-1" source="xm8WO4JMe7OpRyyLNQ5k-13" target="QbFyEuM2jNBCQfaLSNPx-14" edge="1">
                    <mxGeometry relative="1" as="geometry">
                        <Array as="points">
                            <mxPoint x="943" y="640"/>
                            <mxPoint x="763" y="640"/>
                        </Array>
                    </mxGeometry>
                </mxCell>
                <mxCell id="xm8WO4JMe7OpRyyLNQ5k-13" value="&lt;font style=&quot;font-size: 20px&quot;&gt;&lt;br&gt;&lt;/font&gt;" style="shape=loopLimit;whiteSpace=wrap;html=1;strokeWidth=3;size=40;rotation=-180;" parent="G2HblqPfMN18RfDfhi2Z-1" vertex="1">
                    <mxGeometry x="843" y="530" width="200" height="80" as="geometry"/>
                </mxCell>
                <mxCell id="xm8WO4JMe7OpRyyLNQ5k-14" value="&lt;font style=&quot;font-size: 20px&quot;&gt;i++&lt;/font&gt;" style="text;html=1;strokeColor=none;fillColor=none;align=center;verticalAlign=middle;whiteSpace=wrap;rounded=0;" parent="G2HblqPfMN18RfDfhi2Z-1" vertex="1">
                    <mxGeometry x="923" y="560" width="40" height="20" as="geometry"/>
                </mxCell>
                <mxCell id="xm8WO4JMe7OpRyyLNQ5k-15" value="&lt;font style=&quot;font-size: 20px&quot;&gt;j++&lt;/font&gt;" style="text;html=1;strokeColor=none;fillColor=none;align=center;verticalAlign=middle;whiteSpace=wrap;rounded=0;" parent="G2HblqPfMN18RfDfhi2Z-1" vertex="1">
                    <mxGeometry x="923" y="470" width="40" height="20" as="geometry"/>
                </mxCell>
                <mxCell id="xm8WO4JMe7OpRyyLNQ5k-18" value="&lt;font style=&quot;font-size: 20px&quot;&gt;B&lt;/font&gt;" style="ellipse;whiteSpace=wrap;html=1;aspect=fixed;strokeWidth=3;" parent="G2HblqPfMN18RfDfhi2Z-1" vertex="1">
                    <mxGeometry x="400" y="830" width="80" height="80" as="geometry"/>
                </mxCell>
                <mxCell id="xm8WO4JMe7OpRyyLNQ5k-21" style="edgeStyle=none;html=1;exitX=0.5;exitY=1;exitDx=0;exitDy=0;endArrow=none;endFill=0;strokeWidth=3;" parent="G2HblqPfMN18RfDfhi2Z-1" source="xm8WO4JMe7OpRyyLNQ5k-20" target="xm8WO4JMe7OpRyyLNQ5k-4" edge="1">
                    <mxGeometry relative="1" as="geometry"/>
                </mxCell>
                <mxCell id="xm8WO4JMe7OpRyyLNQ5k-20" value="&lt;font style=&quot;font-size: 20px&quot;&gt;B&lt;/font&gt;" style="ellipse;whiteSpace=wrap;html=1;aspect=fixed;strokeWidth=3;" parent="G2HblqPfMN18RfDfhi2Z-1" vertex="1">
                    <mxGeometry x="703" y="20" width="80" height="80" as="geometry"/>
                </mxCell>
            </root>
        </mxGraphModel>
    </diagram>
    <diagram name="SchemaOptVinograd" id="AClW35RkVfk9_P3jcAjG">
        <mxGraphModel dx="1257" dy="896" grid="1" gridSize="10" guides="1" tooltips="1" connect="1" arrows="1" fold="1" page="1" pageScale="1" pageWidth="827" pageHeight="1169" math="0" shadow="0">
            <root>
                <mxCell id="Ce-wTh--27jMGAQ_S8nC-0"/>
                <mxCell id="Ce-wTh--27jMGAQ_S8nC-1" parent="Ce-wTh--27jMGAQ_S8nC-0"/>
                <mxCell id="Ce-wTh--27jMGAQ_S8nC-2" style="edgeStyle=none;html=1;exitX=0.5;exitY=1;exitDx=0;exitDy=0;entryX=0.5;entryY=0;entryDx=0;entryDy=0;strokeWidth=3;endArrow=none;endFill=0;" parent="Ce-wTh--27jMGAQ_S8nC-1" source="Ce-wTh--27jMGAQ_S8nC-3" target="Ce-wTh--27jMGAQ_S8nC-6" edge="1">
                    <mxGeometry relative="1" as="geometry"/>
                </mxCell>
                <mxCell id="Ce-wTh--27jMGAQ_S8nC-3" value="&lt;font style=&quot;font-size: 20px&quot;&gt;Начало&lt;/font&gt;" style="rounded=1;whiteSpace=wrap;html=1;strokeWidth=3;arcSize=50;" parent="Ce-wTh--27jMGAQ_S8nC-1" vertex="1">
                    <mxGeometry x="60" y="20" width="200" height="80" as="geometry"/>
                </mxCell>
                <mxCell id="Ce-wTh--27jMGAQ_S8nC-4" value="&lt;font style=&quot;font-size: 20px&quot;&gt;Конец&lt;/font&gt;" style="rounded=1;whiteSpace=wrap;html=1;strokeWidth=3;arcSize=50;" parent="Ce-wTh--27jMGAQ_S8nC-1" vertex="1">
                    <mxGeometry x="427" y="1180" width="200" height="80" as="geometry"/>
                </mxCell>
                <mxCell id="Ce-wTh--27jMGAQ_S8nC-5" style="edgeStyle=none;html=1;exitX=0.5;exitY=1;exitDx=0;exitDy=0;endArrow=none;endFill=0;strokeWidth=3;" parent="Ce-wTh--27jMGAQ_S8nC-1" source="Ce-wTh--27jMGAQ_S8nC-6" edge="1">
                    <mxGeometry relative="1" as="geometry">
                        <mxPoint x="160" y="204" as="targetPoint"/>
                    </mxGeometry>
                </mxCell>
                <mxCell id="Ce-wTh--27jMGAQ_S8nC-6" value="&lt;span style=&quot;font-size: 20px&quot;&gt;Матрицы &lt;br&gt;m1[L][M] и&lt;br&gt;m2[M][N]&lt;/span&gt;" style="shape=parallelogram;perimeter=parallelogramPerimeter;whiteSpace=wrap;html=1;fixedSize=1;strokeWidth=3;" parent="Ce-wTh--27jMGAQ_S8nC-1" vertex="1">
                    <mxGeometry x="60" y="110" width="200" height="80" as="geometry"/>
                </mxCell>
                <mxCell id="Ce-wTh--27jMGAQ_S8nC-7" style="edgeStyle=none;html=1;exitX=0.5;exitY=1;exitDx=0;exitDy=0;endArrow=none;endFill=0;strokeWidth=3;" parent="Ce-wTh--27jMGAQ_S8nC-1" source="Ce-wTh--27jMGAQ_S8nC-8" target="Ce-wTh--27jMGAQ_S8nC-17" edge="1">
                    <mxGeometry relative="1" as="geometry"/>
                </mxCell>
                <mxCell id="Ce-wTh--27jMGAQ_S8nC-8" value="&lt;span style=&quot;font-size: 20px&quot;&gt;MulH[i] -= m1[i][j] *&lt;/span&gt;&lt;span style=&quot;font-size: 20px&quot;&gt;&amp;nbsp;m1[i][j+1]&lt;/span&gt;" style="rounded=0;whiteSpace=wrap;html=1;strokeWidth=3;" parent="Ce-wTh--27jMGAQ_S8nC-1" vertex="1">
                    <mxGeometry x="60" y="380" width="200" height="80" as="geometry"/>
                </mxCell>
                <mxCell id="Ce-wTh--27jMGAQ_S8nC-9" style="edgeStyle=none;html=1;exitX=0.5;exitY=1;exitDx=0;exitDy=0;entryX=0.5;entryY=0;entryDx=0;entryDy=0;endArrow=none;endFill=0;strokeWidth=3;" parent="Ce-wTh--27jMGAQ_S8nC-1" source="Ce-wTh--27jMGAQ_S8nC-10" target="Ce-wTh--27jMGAQ_S8nC-12" edge="1">
                    <mxGeometry relative="1" as="geometry"/>
                </mxCell>
                <mxCell id="Ce-wTh--27jMGAQ_S8nC-10" value="&lt;font style=&quot;font-size: 20px&quot;&gt;Цикл i = 0; i &amp;lt; L&lt;br&gt;&lt;/font&gt;" style="shape=loopLimit;whiteSpace=wrap;html=1;strokeWidth=3;size=40;" parent="Ce-wTh--27jMGAQ_S8nC-1" vertex="1">
                    <mxGeometry x="60" y="200" width="200" height="80" as="geometry"/>
                </mxCell>
                <mxCell id="Ce-wTh--27jMGAQ_S8nC-11" style="edgeStyle=none;html=1;exitX=0.5;exitY=1;exitDx=0;exitDy=0;entryX=0.5;entryY=0;entryDx=0;entryDy=0;endArrow=none;endFill=0;strokeWidth=3;" parent="Ce-wTh--27jMGAQ_S8nC-1" source="Ce-wTh--27jMGAQ_S8nC-12" target="Ce-wTh--27jMGAQ_S8nC-8" edge="1">
                    <mxGeometry relative="1" as="geometry"/>
                </mxCell>
                <mxCell id="Ce-wTh--27jMGAQ_S8nC-12" value="&lt;font style=&quot;font-size: 20px&quot;&gt;Цикл j = 0; j &amp;lt; M&lt;br&gt;&lt;/font&gt;" style="shape=loopLimit;whiteSpace=wrap;html=1;strokeWidth=3;size=40;" parent="Ce-wTh--27jMGAQ_S8nC-1" vertex="1">
                    <mxGeometry x="60" y="290" width="200" height="80" as="geometry"/>
                </mxCell>
                <mxCell id="Ce-wTh--27jMGAQ_S8nC-13" style="edgeStyle=none;html=1;exitX=0.5;exitY=1;exitDx=0;exitDy=0;entryX=0.5;entryY=0;entryDx=0;entryDy=0;endArrow=none;endFill=0;strokeWidth=3;" parent="Ce-wTh--27jMGAQ_S8nC-1" source="Ce-wTh--27jMGAQ_S8nC-15" target="Ce-wTh--27jMGAQ_S8nC-4" edge="1">
                    <mxGeometry relative="1" as="geometry"/>
                </mxCell>
                <mxCell id="Ce-wTh--27jMGAQ_S8nC-14" style="edgeStyle=none;html=1;exitX=0.5;exitY=0;exitDx=0;exitDy=0;entryX=0.5;entryY=0;entryDx=0;entryDy=0;endArrow=none;endFill=0;strokeWidth=3;" parent="Ce-wTh--27jMGAQ_S8nC-1" source="Ce-wTh--27jMGAQ_S8nC-15" target="Ce-wTh--27jMGAQ_S8nC-41" edge="1">
                    <mxGeometry relative="1" as="geometry"/>
                </mxCell>
                <mxCell id="Ce-wTh--27jMGAQ_S8nC-15" value="&lt;span style=&quot;font-size: 20px&quot;&gt;m3[L][N]&lt;/span&gt;" style="shape=parallelogram;perimeter=parallelogramPerimeter;whiteSpace=wrap;html=1;fixedSize=1;strokeWidth=3;" parent="Ce-wTh--27jMGAQ_S8nC-1" vertex="1">
                    <mxGeometry x="427" y="1090" width="200" height="80" as="geometry"/>
                </mxCell>
                <mxCell id="Ce-wTh--27jMGAQ_S8nC-16" style="edgeStyle=none;html=1;exitX=0.5;exitY=0;exitDx=0;exitDy=0;entryX=0.5;entryY=1;entryDx=0;entryDy=0;endArrow=none;endFill=0;strokeWidth=3;" parent="Ce-wTh--27jMGAQ_S8nC-1" source="Ce-wTh--27jMGAQ_S8nC-17" target="Ce-wTh--27jMGAQ_S8nC-19" edge="1">
                    <mxGeometry relative="1" as="geometry"/>
                </mxCell>
                <mxCell id="Ce-wTh--27jMGAQ_S8nC-17" value="&lt;font style=&quot;font-size: 20px&quot;&gt;&lt;br&gt;&lt;/font&gt;" style="shape=loopLimit;whiteSpace=wrap;html=1;strokeWidth=3;size=40;rotation=-180;" parent="Ce-wTh--27jMGAQ_S8nC-1" vertex="1">
                    <mxGeometry x="60" y="470" width="200" height="80" as="geometry"/>
                </mxCell>
                <mxCell id="Ce-wTh--27jMGAQ_S8nC-18" style="edgeStyle=none;html=1;exitX=0.5;exitY=0;exitDx=0;exitDy=0;entryX=0.5;entryY=0;entryDx=0;entryDy=0;endArrow=none;endFill=0;strokeWidth=3;" parent="Ce-wTh--27jMGAQ_S8nC-1" source="Ce-wTh--27jMGAQ_S8nC-19" target="Ce-wTh--27jMGAQ_S8nC-25" edge="1">
                    <mxGeometry relative="1" as="geometry"/>
                </mxCell>
                <mxCell id="Ce-wTh--27jMGAQ_S8nC-19" value="&lt;font style=&quot;font-size: 20px&quot;&gt;&lt;br&gt;&lt;/font&gt;" style="shape=loopLimit;whiteSpace=wrap;html=1;strokeWidth=3;size=40;rotation=-180;" parent="Ce-wTh--27jMGAQ_S8nC-1" vertex="1">
                    <mxGeometry x="60" y="560" width="200" height="80" as="geometry"/>
                </mxCell>
                <mxCell id="Ce-wTh--27jMGAQ_S8nC-20" value="&lt;font style=&quot;font-size: 20px&quot;&gt;i++&lt;/font&gt;" style="text;html=1;strokeColor=none;fillColor=none;align=center;verticalAlign=middle;whiteSpace=wrap;rounded=0;" parent="Ce-wTh--27jMGAQ_S8nC-1" vertex="1">
                    <mxGeometry x="140" y="590" width="40" height="20" as="geometry"/>
                </mxCell>
                <mxCell id="Ce-wTh--27jMGAQ_S8nC-21" value="&lt;font style=&quot;font-size: 20px&quot;&gt;j = j + 2&lt;/font&gt;" style="text;html=1;strokeColor=none;fillColor=none;align=center;verticalAlign=middle;whiteSpace=wrap;rounded=0;" parent="Ce-wTh--27jMGAQ_S8nC-1" vertex="1">
                    <mxGeometry x="120" y="500" width="80" height="20" as="geometry"/>
                </mxCell>
                <mxCell id="Ce-wTh--27jMGAQ_S8nC-22" style="edgeStyle=none;html=1;exitX=0.5;exitY=1;exitDx=0;exitDy=0;endArrow=none;endFill=0;strokeWidth=3;" parent="Ce-wTh--27jMGAQ_S8nC-1" source="Ce-wTh--27jMGAQ_S8nC-23" target="Ce-wTh--27jMGAQ_S8nC-29" edge="1">
                    <mxGeometry relative="1" as="geometry"/>
                </mxCell>
                <mxCell id="Ce-wTh--27jMGAQ_S8nC-23" value="&lt;span style=&quot;font-size: 20px&quot;&gt;MulV[i] -= m1&lt;/span&gt;&lt;span style=&quot;font-size: 20px&quot;&gt;[j]&lt;/span&gt;&lt;span style=&quot;font-size: 20px&quot;&gt;[i] *&lt;/span&gt;&lt;span style=&quot;font-size: 20px&quot;&gt;&amp;nbsp;m1&lt;/span&gt;&lt;span style=&quot;font-size: 20px&quot;&gt;[j+1]&lt;/span&gt;&lt;span style=&quot;font-size: 20px&quot;&gt;[i]&lt;/span&gt;" style="rounded=0;whiteSpace=wrap;html=1;strokeWidth=3;" parent="Ce-wTh--27jMGAQ_S8nC-1" vertex="1">
                    <mxGeometry x="60" y="830" width="200" height="80" as="geometry"/>
                </mxCell>
                <mxCell id="Ce-wTh--27jMGAQ_S8nC-24" style="edgeStyle=none;html=1;exitX=0.5;exitY=1;exitDx=0;exitDy=0;entryX=0.5;entryY=0;entryDx=0;entryDy=0;endArrow=none;endFill=0;strokeWidth=3;" parent="Ce-wTh--27jMGAQ_S8nC-1" source="Ce-wTh--27jMGAQ_S8nC-25" target="Ce-wTh--27jMGAQ_S8nC-27" edge="1">
                    <mxGeometry relative="1" as="geometry"/>
                </mxCell>
                <mxCell id="Ce-wTh--27jMGAQ_S8nC-25" value="&lt;font style=&quot;font-size: 20px&quot;&gt;Цикл i = 0; i &amp;lt; N&lt;br&gt;&lt;/font&gt;" style="shape=loopLimit;whiteSpace=wrap;html=1;strokeWidth=3;size=40;" parent="Ce-wTh--27jMGAQ_S8nC-1" vertex="1">
                    <mxGeometry x="60" y="650" width="200" height="80" as="geometry"/>
                </mxCell>
                <mxCell id="Ce-wTh--27jMGAQ_S8nC-26" style="edgeStyle=none;html=1;exitX=0.5;exitY=1;exitDx=0;exitDy=0;entryX=0.5;entryY=0;entryDx=0;entryDy=0;endArrow=none;endFill=0;strokeWidth=3;" parent="Ce-wTh--27jMGAQ_S8nC-1" source="Ce-wTh--27jMGAQ_S8nC-27" target="Ce-wTh--27jMGAQ_S8nC-23" edge="1">
                    <mxGeometry relative="1" as="geometry"/>
                </mxCell>
                <mxCell id="Ce-wTh--27jMGAQ_S8nC-27" value="&lt;font style=&quot;font-size: 20px&quot;&gt;Цикл j = 0; j &amp;lt; M&lt;br&gt;&lt;/font&gt;" style="shape=loopLimit;whiteSpace=wrap;html=1;strokeWidth=3;size=40;" parent="Ce-wTh--27jMGAQ_S8nC-1" vertex="1">
                    <mxGeometry x="60" y="740" width="200" height="80" as="geometry"/>
                </mxCell>
                <mxCell id="Ce-wTh--27jMGAQ_S8nC-28" style="edgeStyle=none;html=1;exitX=0.5;exitY=0;exitDx=0;exitDy=0;entryX=0.5;entryY=1;entryDx=0;entryDy=0;endArrow=none;endFill=0;strokeWidth=3;" parent="Ce-wTh--27jMGAQ_S8nC-1" source="Ce-wTh--27jMGAQ_S8nC-29" target="Ce-wTh--27jMGAQ_S8nC-30" edge="1">
                    <mxGeometry relative="1" as="geometry"/>
                </mxCell>
                <mxCell id="Ce-wTh--27jMGAQ_S8nC-29" value="&lt;font style=&quot;font-size: 20px&quot;&gt;&lt;br&gt;&lt;/font&gt;" style="shape=loopLimit;whiteSpace=wrap;html=1;strokeWidth=3;size=40;rotation=-180;" parent="Ce-wTh--27jMGAQ_S8nC-1" vertex="1">
                    <mxGeometry x="60" y="920" width="200" height="80" as="geometry"/>
                </mxCell>
                <mxCell id="Ce-wTh--27jMGAQ_S8nC-30" value="&lt;font style=&quot;font-size: 20px&quot;&gt;&lt;br&gt;&lt;/font&gt;" style="shape=loopLimit;whiteSpace=wrap;html=1;strokeWidth=3;size=40;rotation=-180;" parent="Ce-wTh--27jMGAQ_S8nC-1" vertex="1">
                    <mxGeometry x="60" y="1010" width="200" height="80" as="geometry"/>
                </mxCell>
                <mxCell id="Ce-wTh--27jMGAQ_S8nC-31" value="&lt;font style=&quot;font-size: 20px&quot;&gt;i++&lt;/font&gt;" style="text;html=1;strokeColor=none;fillColor=none;align=center;verticalAlign=middle;whiteSpace=wrap;rounded=0;" parent="Ce-wTh--27jMGAQ_S8nC-1" vertex="1">
                    <mxGeometry x="140" y="1040" width="40" height="20" as="geometry"/>
                </mxCell>
                <mxCell id="Ce-wTh--27jMGAQ_S8nC-33" value="&lt;span style=&quot;font-size: 20px&quot;&gt;buffer = MulH[i] &lt;br&gt;MulV[j]&lt;/span&gt;" style="rounded=0;whiteSpace=wrap;html=1;strokeWidth=3;" parent="Ce-wTh--27jMGAQ_S8nC-1" vertex="1">
                    <mxGeometry x="427" y="291" width="200" height="80" as="geometry"/>
                </mxCell>
                <mxCell id="Ce-wTh--27jMGAQ_S8nC-34" style="edgeStyle=none;html=1;exitX=0.5;exitY=1;exitDx=0;exitDy=0;entryX=0.5;entryY=0;entryDx=0;entryDy=0;endArrow=none;endFill=0;strokeWidth=3;" parent="Ce-wTh--27jMGAQ_S8nC-1" source="Ce-wTh--27jMGAQ_S8nC-36" target="Ce-wTh--27jMGAQ_S8nC-38" edge="1">
                    <mxGeometry relative="1" as="geometry"/>
                </mxCell>
                <mxCell id="Ce-wTh--27jMGAQ_S8nC-35" style="edgeStyle=none;html=1;exitX=0.5;exitY=0;exitDx=0;exitDy=0;entryX=0.5;entryY=1;entryDx=0;entryDy=0;endArrow=none;endFill=0;strokeWidth=3;" parent="Ce-wTh--27jMGAQ_S8nC-1" source="Ce-wTh--27jMGAQ_S8nC-36" target="Ce-wTh--27jMGAQ_S8nC-60" edge="1">
                    <mxGeometry relative="1" as="geometry"/>
                </mxCell>
                <mxCell id="Ce-wTh--27jMGAQ_S8nC-36" value="&lt;font style=&quot;font-size: 20px&quot;&gt;Цикл i = 0; i &amp;lt; N&lt;br&gt;&lt;/font&gt;" style="shape=loopLimit;whiteSpace=wrap;html=1;strokeWidth=3;size=40;" parent="Ce-wTh--27jMGAQ_S8nC-1" vertex="1">
                    <mxGeometry x="427" y="110" width="200" height="80" as="geometry"/>
                </mxCell>
                <mxCell id="Ce-wTh--27jMGAQ_S8nC-37" style="edgeStyle=none;html=1;exitX=0.5;exitY=1;exitDx=0;exitDy=0;entryX=0.5;entryY=0;entryDx=0;entryDy=0;endArrow=none;endFill=0;strokeWidth=3;" parent="Ce-wTh--27jMGAQ_S8nC-1" source="Ce-wTh--27jMGAQ_S8nC-38" target="Ce-wTh--27jMGAQ_S8nC-33" edge="1">
                    <mxGeometry relative="1" as="geometry"/>
                </mxCell>
                <mxCell id="Ce-wTh--27jMGAQ_S8nC-38" value="&lt;font style=&quot;font-size: 20px&quot;&gt;Цикл j = 0; j &amp;lt; L&lt;br&gt;&lt;/font&gt;" style="shape=loopLimit;whiteSpace=wrap;html=1;strokeWidth=3;size=40;" parent="Ce-wTh--27jMGAQ_S8nC-1" vertex="1">
                    <mxGeometry x="427" y="200" width="200" height="80" as="geometry"/>
                </mxCell>
                <mxCell id="Ce-wTh--27jMGAQ_S8nC-39" style="edgeStyle=none;html=1;exitX=0.5;exitY=0;exitDx=0;exitDy=0;entryX=0.5;entryY=1;entryDx=0;entryDy=0;endArrow=none;endFill=0;strokeWidth=3;" parent="Ce-wTh--27jMGAQ_S8nC-1" source="Ce-wTh--27jMGAQ_S8nC-40" target="Ce-wTh--27jMGAQ_S8nC-41" edge="1">
                    <mxGeometry relative="1" as="geometry"/>
                </mxCell>
                <mxCell id="Ce-wTh--27jMGAQ_S8nC-40" value="&lt;font style=&quot;font-size: 20px&quot;&gt;&lt;br&gt;&lt;/font&gt;" style="shape=loopLimit;whiteSpace=wrap;html=1;strokeWidth=3;size=40;rotation=-180;" parent="Ce-wTh--27jMGAQ_S8nC-1" vertex="1">
                    <mxGeometry x="427" y="910" width="200" height="80" as="geometry"/>
                </mxCell>
                <mxCell id="Ce-wTh--27jMGAQ_S8nC-41" value="&lt;font style=&quot;font-size: 20px&quot;&gt;&lt;br&gt;&lt;/font&gt;" style="shape=loopLimit;whiteSpace=wrap;html=1;strokeWidth=3;size=40;rotation=-180;" parent="Ce-wTh--27jMGAQ_S8nC-1" vertex="1">
                    <mxGeometry x="427" y="1000" width="200" height="80" as="geometry"/>
                </mxCell>
                <mxCell id="Ce-wTh--27jMGAQ_S8nC-42" value="&lt;font style=&quot;font-size: 20px&quot;&gt;i++&lt;/font&gt;" style="text;html=1;strokeColor=none;fillColor=none;align=center;verticalAlign=middle;whiteSpace=wrap;rounded=0;" parent="Ce-wTh--27jMGAQ_S8nC-1" vertex="1">
                    <mxGeometry x="507" y="1030" width="40" height="20" as="geometry"/>
                </mxCell>
                <mxCell id="Ce-wTh--27jMGAQ_S8nC-43" value="&lt;font style=&quot;font-size: 20px&quot;&gt;j++&lt;/font&gt;" style="text;html=1;strokeColor=none;fillColor=none;align=center;verticalAlign=middle;whiteSpace=wrap;rounded=0;" parent="Ce-wTh--27jMGAQ_S8nC-1" vertex="1">
                    <mxGeometry x="507" y="940" width="40" height="20" as="geometry"/>
                </mxCell>
                <mxCell id="Ce-wTh--27jMGAQ_S8nC-44" style="edgeStyle=none;html=1;exitX=0.5;exitY=1;exitDx=0;exitDy=0;entryX=0.5;entryY=0;entryDx=0;entryDy=0;endArrow=none;endFill=0;strokeWidth=3;" parent="Ce-wTh--27jMGAQ_S8nC-1" source="Ce-wTh--27jMGAQ_S8nC-46" target="Ce-wTh--27jMGAQ_S8nC-50" edge="1">
                    <mxGeometry relative="1" as="geometry"/>
                </mxCell>
                <mxCell id="Ce-wTh--27jMGAQ_S8nC-45" value="" style="edgeStyle=none;html=1;endArrow=none;endFill=0;strokeWidth=3;" parent="Ce-wTh--27jMGAQ_S8nC-1" target="Ce-wTh--27jMGAQ_S8nC-33" edge="1">
                    <mxGeometry relative="1" as="geometry">
                        <mxPoint x="527" y="411" as="sourcePoint"/>
                    </mxGeometry>
                </mxCell>
                <mxCell id="Ce-wTh--27jMGAQ_S8nC-46" value="&lt;font style=&quot;font-size: 20px&quot;&gt;Цикл k = 0; k &amp;lt; M&lt;br&gt;&lt;/font&gt;" style="shape=loopLimit;whiteSpace=wrap;html=1;strokeWidth=3;size=40;" parent="Ce-wTh--27jMGAQ_S8nC-1" vertex="1">
                    <mxGeometry x="427" y="380" width="200" height="80" as="geometry"/>
                </mxCell>
                <mxCell id="Ce-wTh--27jMGAQ_S8nC-47" style="edgeStyle=none;html=1;exitX=0.5;exitY=1;exitDx=0;exitDy=0;entryX=0.5;entryY=1;entryDx=0;entryDy=0;endArrow=none;endFill=0;strokeWidth=3;" parent="Ce-wTh--27jMGAQ_S8nC-1" source="Ce-wTh--27jMGAQ_S8nC-48" target="Ce-wTh--27jMGAQ_S8nC-50" edge="1">
                    <mxGeometry relative="1" as="geometry"/>
                </mxCell>
                <mxCell id="Ce-wTh--27jMGAQ_S8nC-48" value="&lt;font style=&quot;font-size: 20px&quot;&gt;&lt;br&gt;&lt;/font&gt;" style="shape=loopLimit;whiteSpace=wrap;html=1;strokeWidth=3;size=40;rotation=-180;" parent="Ce-wTh--27jMGAQ_S8nC-1" vertex="1">
                    <mxGeometry x="427" y="560" width="200" height="80" as="geometry"/>
                </mxCell>
                <mxCell id="Ce-wTh--27jMGAQ_S8nC-49" value="&lt;font style=&quot;font-size: 20px&quot;&gt;k = k + 2&lt;/font&gt;" style="text;html=1;strokeColor=none;fillColor=none;align=center;verticalAlign=middle;whiteSpace=wrap;rounded=0;" parent="Ce-wTh--27jMGAQ_S8nC-1" vertex="1">
                    <mxGeometry x="485.5" y="590" width="83" height="20" as="geometry"/>
                </mxCell>
                <mxCell id="Ce-wTh--27jMGAQ_S8nC-50" value="&lt;span style=&quot;font-size: 20px&quot;&gt;buffer += (m1[i][k] + m2[k+1][j])*&lt;/span&gt;&lt;span style=&quot;font-size: 20px&quot;&gt;(m1[i][k+1] + m2[k][j])&lt;/span&gt;" style="rounded=0;whiteSpace=wrap;html=1;strokeWidth=3;" parent="Ce-wTh--27jMGAQ_S8nC-1" vertex="1">
                    <mxGeometry x="427" y="470" width="200" height="80" as="geometry"/>
                </mxCell>
                <mxCell id="Ce-wTh--27jMGAQ_S8nC-51" style="edgeStyle=none;html=1;exitX=0.5;exitY=1;exitDx=0;exitDy=0;entryX=0.5;entryY=0;entryDx=0;entryDy=0;endArrow=none;endFill=0;strokeWidth=3;" parent="Ce-wTh--27jMGAQ_S8nC-1" target="Ce-wTh--27jMGAQ_S8nC-62" edge="1">
                    <mxGeometry relative="1" as="geometry">
                        <mxPoint x="727" y="750" as="sourcePoint"/>
                        <Array as="points">
                            <mxPoint x="727" y="810"/>
                            <mxPoint x="527" y="810"/>
                        </Array>
                        <mxPoint x="527" y="820" as="targetPoint"/>
                    </mxGeometry>
                </mxCell>
                <mxCell id="Ce-wTh--27jMGAQ_S8nC-52" value="&lt;span style=&quot;font-size: 20px&quot;&gt;buffer = m1[i][M-1] * m2[M-1][j]&lt;/span&gt;&lt;span style=&quot;font-size: 20px&quot;&gt;&lt;br&gt;&lt;/span&gt;" style="rounded=0;whiteSpace=wrap;html=1;strokeWidth=3;" parent="Ce-wTh--27jMGAQ_S8nC-1" vertex="1">
                    <mxGeometry x="627" y="710" width="200" height="80" as="geometry"/>
                </mxCell>
                <mxCell id="Ce-wTh--27jMGAQ_S8nC-53" style="edgeStyle=none;html=1;exitX=0;exitY=0.5;exitDx=0;exitDy=0;endArrow=none;endFill=0;strokeWidth=3;entryX=0.5;entryY=0;entryDx=0;entryDy=0;" parent="Ce-wTh--27jMGAQ_S8nC-1" source="Ce-wTh--27jMGAQ_S8nC-56" target="Ce-wTh--27jMGAQ_S8nC-62" edge="1">
                    <mxGeometry relative="1" as="geometry">
                        <mxPoint x="327" y="730" as="targetPoint"/>
                        <Array as="points">
                            <mxPoint x="397" y="690"/>
                            <mxPoint x="397" y="810"/>
                            <mxPoint x="527" y="810"/>
                        </Array>
                    </mxGeometry>
                </mxCell>
                <mxCell id="Ce-wTh--27jMGAQ_S8nC-54" style="edgeStyle=none;html=1;exitX=1;exitY=0.5;exitDx=0;exitDy=0;entryX=0.5;entryY=0;entryDx=0;entryDy=0;endArrow=blockThin;endFill=1;strokeWidth=3;" parent="Ce-wTh--27jMGAQ_S8nC-1" source="Ce-wTh--27jMGAQ_S8nC-56" target="Ce-wTh--27jMGAQ_S8nC-52" edge="1">
                    <mxGeometry relative="1" as="geometry">
                        <Array as="points">
                            <mxPoint x="727" y="690"/>
                        </Array>
                    </mxGeometry>
                </mxCell>
                <mxCell id="Ce-wTh--27jMGAQ_S8nC-55" style="edgeStyle=none;html=1;exitX=0.5;exitY=0;exitDx=0;exitDy=0;entryX=0.5;entryY=0;entryDx=0;entryDy=0;endArrow=none;endFill=0;strokeWidth=3;" parent="Ce-wTh--27jMGAQ_S8nC-1" source="Ce-wTh--27jMGAQ_S8nC-56" target="Ce-wTh--27jMGAQ_S8nC-48" edge="1">
                    <mxGeometry relative="1" as="geometry"/>
                </mxCell>
                <mxCell id="Ce-wTh--27jMGAQ_S8nC-56" value="&lt;font style=&quot;font-size: 20px&quot;&gt;M - нечетное&lt;/font&gt;" style="rhombus;whiteSpace=wrap;html=1;strokeWidth=3;" parent="Ce-wTh--27jMGAQ_S8nC-1" vertex="1">
                    <mxGeometry x="427" y="650" width="200" height="80" as="geometry"/>
                </mxCell>
                <mxCell id="Ce-wTh--27jMGAQ_S8nC-57" value="&lt;font style=&quot;font-size: 20px&quot;&gt;Да&lt;/font&gt;" style="text;html=1;strokeColor=none;fillColor=none;align=center;verticalAlign=middle;whiteSpace=wrap;rounded=0;" parent="Ce-wTh--27jMGAQ_S8nC-1" vertex="1">
                    <mxGeometry x="680" y="660" width="40" height="20" as="geometry"/>
                </mxCell>
                <mxCell id="Ce-wTh--27jMGAQ_S8nC-58" style="edgeStyle=none;html=1;exitX=0.5;exitY=0;exitDx=0;exitDy=0;entryX=0.5;entryY=0;entryDx=0;entryDy=0;endArrow=none;endFill=0;strokeWidth=3;" parent="Ce-wTh--27jMGAQ_S8nC-1" source="Ce-wTh--27jMGAQ_S8nC-59" target="Ce-wTh--27jMGAQ_S8nC-30" edge="1">
                    <mxGeometry relative="1" as="geometry"/>
                </mxCell>
                <mxCell id="Ce-wTh--27jMGAQ_S8nC-59" value="&lt;font style=&quot;font-size: 20px&quot;&gt;A&lt;/font&gt;" style="ellipse;whiteSpace=wrap;html=1;aspect=fixed;strokeWidth=3;" parent="Ce-wTh--27jMGAQ_S8nC-1" vertex="1">
                    <mxGeometry x="120" y="1100" width="80" height="80" as="geometry"/>
                </mxCell>
                <mxCell id="Ce-wTh--27jMGAQ_S8nC-60" value="&lt;font style=&quot;font-size: 20px&quot;&gt;A&lt;/font&gt;" style="ellipse;whiteSpace=wrap;html=1;aspect=fixed;strokeWidth=3;" parent="Ce-wTh--27jMGAQ_S8nC-1" vertex="1">
                    <mxGeometry x="487" y="20" width="80" height="80" as="geometry"/>
                </mxCell>
                <mxCell id="Ce-wTh--27jMGAQ_S8nC-61" value="&lt;font style=&quot;font-size: 20px&quot;&gt;j = j + 2&lt;/font&gt;" style="text;html=1;strokeColor=none;fillColor=none;align=center;verticalAlign=middle;whiteSpace=wrap;rounded=0;" parent="Ce-wTh--27jMGAQ_S8nC-1" vertex="1">
                    <mxGeometry x="120" y="950" width="80" height="20" as="geometry"/>
                </mxCell>
                <mxCell id="Ce-wTh--27jMGAQ_S8nC-63" style="edgeStyle=none;html=1;exitX=0.5;exitY=1;exitDx=0;exitDy=0;entryX=0.5;entryY=1;entryDx=0;entryDy=0;endArrow=none;endFill=0;strokeWidth=3;" parent="Ce-wTh--27jMGAQ_S8nC-1" source="Ce-wTh--27jMGAQ_S8nC-62" target="Ce-wTh--27jMGAQ_S8nC-40" edge="1">
                    <mxGeometry relative="1" as="geometry"/>
                </mxCell>
                <mxCell id="Ce-wTh--27jMGAQ_S8nC-62" value="&lt;span style=&quot;font-size: 20px&quot;&gt;m3[i][j] = buffer&lt;/span&gt;" style="rounded=0;whiteSpace=wrap;html=1;strokeWidth=3;" parent="Ce-wTh--27jMGAQ_S8nC-1" vertex="1">
                    <mxGeometry x="427" y="820" width="200" height="80" as="geometry"/>
                </mxCell>
            </root>
        </mxGraphModel>
    </diagram>
    <diagram id="_ArAGs3EhwRIaZAqXpoJ" name="SchemaStandart">
        <mxGraphModel dx="880" dy="627" grid="1" gridSize="10" guides="1" tooltips="1" connect="1" arrows="1" fold="1" page="1" pageScale="1" pageWidth="827" pageHeight="1169" math="0" shadow="0">
            <root>
                <mxCell id="xfuyZNF-amqBoasYQLIJ-0"/>
                <mxCell id="xfuyZNF-amqBoasYQLIJ-1" parent="xfuyZNF-amqBoasYQLIJ-0"/>
                <mxCell id="xfuyZNF-amqBoasYQLIJ-104" style="edgeStyle=none;html=1;exitX=0.5;exitY=1;exitDx=0;exitDy=0;entryX=0.5;entryY=0;entryDx=0;entryDy=0;strokeWidth=3;endArrow=none;endFill=0;" parent="xfuyZNF-amqBoasYQLIJ-1" source="xfuyZNF-amqBoasYQLIJ-4" target="xfuyZNF-amqBoasYQLIJ-21" edge="1">
                    <mxGeometry relative="1" as="geometry"/>
                </mxCell>
                <mxCell id="xfuyZNF-amqBoasYQLIJ-4" value="&lt;font style=&quot;font-size: 20px&quot;&gt;Начало&lt;/font&gt;" style="rounded=1;whiteSpace=wrap;html=1;strokeWidth=3;arcSize=50;" parent="xfuyZNF-amqBoasYQLIJ-1" vertex="1">
                    <mxGeometry x="60" y="20" width="200" height="80" as="geometry"/>
                </mxCell>
                <mxCell id="xfuyZNF-amqBoasYQLIJ-5" value="&lt;font style=&quot;font-size: 20px&quot;&gt;Конец&lt;/font&gt;" style="rounded=1;whiteSpace=wrap;html=1;strokeWidth=3;arcSize=50;" parent="xfuyZNF-amqBoasYQLIJ-1" vertex="1">
                    <mxGeometry x="60" y="920" width="200" height="80" as="geometry"/>
                </mxCell>
                <mxCell id="xfuyZNF-amqBoasYQLIJ-106" style="edgeStyle=none;html=1;exitX=0.5;exitY=1;exitDx=0;exitDy=0;endArrow=none;endFill=0;strokeWidth=3;" parent="xfuyZNF-amqBoasYQLIJ-1" source="xfuyZNF-amqBoasYQLIJ-21" edge="1">
                    <mxGeometry relative="1" as="geometry">
                        <mxPoint x="160" y="204" as="targetPoint"/>
                    </mxGeometry>
                </mxCell>
                <mxCell id="xfuyZNF-amqBoasYQLIJ-21" value="&lt;span style=&quot;font-size: 20px&quot;&gt;Матрицы &lt;br&gt;m1[L][M] и&lt;br&gt;m2[M][N]&lt;/span&gt;" style="shape=parallelogram;perimeter=parallelogramPerimeter;whiteSpace=wrap;html=1;fixedSize=1;strokeWidth=3;" parent="xfuyZNF-amqBoasYQLIJ-1" vertex="1">
                    <mxGeometry x="60" y="110" width="200" height="80" as="geometry"/>
                </mxCell>
                <mxCell id="xfuyZNF-amqBoasYQLIJ-125" style="edgeStyle=none;html=1;exitX=0.5;exitY=1;exitDx=0;exitDy=0;entryX=0.5;entryY=1;entryDx=0;entryDy=0;endArrow=none;endFill=0;strokeWidth=3;" parent="xfuyZNF-amqBoasYQLIJ-1" source="xfuyZNF-amqBoasYQLIJ-42" target="xfuyZNF-amqBoasYQLIJ-113" edge="1">
                    <mxGeometry relative="1" as="geometry"/>
                </mxCell>
                <mxCell id="xfuyZNF-amqBoasYQLIJ-42" value="&lt;span style=&quot;font-size: 20px&quot;&gt;m3[i][j] += m1[i][k] * m2[k][j]&lt;/span&gt;" style="rounded=0;whiteSpace=wrap;html=1;strokeWidth=3;" parent="xfuyZNF-amqBoasYQLIJ-1" vertex="1">
                    <mxGeometry x="60" y="470" width="200" height="80" as="geometry"/>
                </mxCell>
                <mxCell id="xfuyZNF-amqBoasYQLIJ-109" style="edgeStyle=none;html=1;exitX=0.5;exitY=1;exitDx=0;exitDy=0;entryX=0.5;entryY=0;entryDx=0;entryDy=0;endArrow=none;endFill=0;strokeWidth=3;" parent="xfuyZNF-amqBoasYQLIJ-1" source="xfuyZNF-amqBoasYQLIJ-105" target="xfuyZNF-amqBoasYQLIJ-107" edge="1">
                    <mxGeometry relative="1" as="geometry"/>
                </mxCell>
                <mxCell id="xfuyZNF-amqBoasYQLIJ-105" value="&lt;font style=&quot;font-size: 20px&quot;&gt;Цикл i = 0; i &amp;lt; L&lt;br&gt;&lt;/font&gt;" style="shape=loopLimit;whiteSpace=wrap;html=1;strokeWidth=3;size=40;" parent="xfuyZNF-amqBoasYQLIJ-1" vertex="1">
                    <mxGeometry x="60" y="200" width="200" height="80" as="geometry"/>
                </mxCell>
                <mxCell id="xfuyZNF-amqBoasYQLIJ-110" style="edgeStyle=none;html=1;exitX=0.5;exitY=1;exitDx=0;exitDy=0;entryX=0.5;entryY=0;entryDx=0;entryDy=0;endArrow=none;endFill=0;strokeWidth=3;" parent="xfuyZNF-amqBoasYQLIJ-1" source="xfuyZNF-amqBoasYQLIJ-107" target="xfuyZNF-amqBoasYQLIJ-108" edge="1">
                    <mxGeometry relative="1" as="geometry"/>
                </mxCell>
                <mxCell id="xfuyZNF-amqBoasYQLIJ-107" value="&lt;font style=&quot;font-size: 20px&quot;&gt;Цикл j = 0; j &amp;lt; M&lt;br&gt;&lt;/font&gt;" style="shape=loopLimit;whiteSpace=wrap;html=1;strokeWidth=3;size=40;" parent="xfuyZNF-amqBoasYQLIJ-1" vertex="1">
                    <mxGeometry x="60" y="290" width="200" height="80" as="geometry"/>
                </mxCell>
                <mxCell id="xfuyZNF-amqBoasYQLIJ-111" style="edgeStyle=none;html=1;exitX=0.5;exitY=1;exitDx=0;exitDy=0;entryX=0.5;entryY=0;entryDx=0;entryDy=0;endArrow=none;endFill=0;strokeWidth=3;" parent="xfuyZNF-amqBoasYQLIJ-1" source="xfuyZNF-amqBoasYQLIJ-108" target="xfuyZNF-amqBoasYQLIJ-42" edge="1">
                    <mxGeometry relative="1" as="geometry"/>
                </mxCell>
                <mxCell id="xfuyZNF-amqBoasYQLIJ-108" value="&lt;font style=&quot;font-size: 20px&quot;&gt;Цикл k = 0; k &amp;lt; N&lt;br&gt;&lt;/font&gt;" style="shape=loopLimit;whiteSpace=wrap;html=1;strokeWidth=3;size=40;" parent="xfuyZNF-amqBoasYQLIJ-1" vertex="1">
                    <mxGeometry x="60" y="380" width="200" height="80" as="geometry"/>
                </mxCell>
                <mxCell id="xfuyZNF-amqBoasYQLIJ-129" style="edgeStyle=none;html=1;exitX=0.5;exitY=1;exitDx=0;exitDy=0;entryX=0.5;entryY=0;entryDx=0;entryDy=0;endArrow=none;endFill=0;strokeWidth=3;" parent="xfuyZNF-amqBoasYQLIJ-1" source="xfuyZNF-amqBoasYQLIJ-112" target="xfuyZNF-amqBoasYQLIJ-5" edge="1">
                    <mxGeometry relative="1" as="geometry"/>
                </mxCell>
                <mxCell id="xfuyZNF-amqBoasYQLIJ-112" value="&lt;span style=&quot;font-size: 20px&quot;&gt;m3[L][N]&lt;/span&gt;" style="shape=parallelogram;perimeter=parallelogramPerimeter;whiteSpace=wrap;html=1;fixedSize=1;strokeWidth=3;" parent="xfuyZNF-amqBoasYQLIJ-1" vertex="1">
                    <mxGeometry x="60" y="830" width="200" height="80" as="geometry"/>
                </mxCell>
                <mxCell id="xfuyZNF-amqBoasYQLIJ-126" style="edgeStyle=none;html=1;exitX=0.5;exitY=0;exitDx=0;exitDy=0;entryX=0.5;entryY=1;entryDx=0;entryDy=0;endArrow=none;endFill=0;strokeWidth=3;" parent="xfuyZNF-amqBoasYQLIJ-1" source="xfuyZNF-amqBoasYQLIJ-113" target="xfuyZNF-amqBoasYQLIJ-114" edge="1">
                    <mxGeometry relative="1" as="geometry"/>
                </mxCell>
                <mxCell id="xfuyZNF-amqBoasYQLIJ-113" value="&lt;font style=&quot;font-size: 20px&quot;&gt;&lt;br&gt;&lt;/font&gt;" style="shape=loopLimit;whiteSpace=wrap;html=1;strokeWidth=3;size=40;rotation=-180;" parent="xfuyZNF-amqBoasYQLIJ-1" vertex="1">
                    <mxGeometry x="60" y="560" width="200" height="80" as="geometry"/>
                </mxCell>
                <mxCell id="xfuyZNF-amqBoasYQLIJ-127" style="edgeStyle=none;html=1;exitX=0.5;exitY=0;exitDx=0;exitDy=0;entryX=0.5;entryY=1;entryDx=0;entryDy=0;endArrow=none;endFill=0;strokeWidth=3;" parent="xfuyZNF-amqBoasYQLIJ-1" source="xfuyZNF-amqBoasYQLIJ-114" target="xfuyZNF-amqBoasYQLIJ-115" edge="1">
                    <mxGeometry relative="1" as="geometry"/>
                </mxCell>
                <mxCell id="xfuyZNF-amqBoasYQLIJ-114" value="&lt;font style=&quot;font-size: 20px&quot;&gt;&lt;br&gt;&lt;/font&gt;" style="shape=loopLimit;whiteSpace=wrap;html=1;strokeWidth=3;size=40;rotation=-180;" parent="xfuyZNF-amqBoasYQLIJ-1" vertex="1">
                    <mxGeometry x="60" y="650" width="200" height="80" as="geometry"/>
                </mxCell>
                <mxCell id="xfuyZNF-amqBoasYQLIJ-128" style="edgeStyle=none;html=1;exitX=0.5;exitY=0;exitDx=0;exitDy=0;entryX=0.5;entryY=0;entryDx=0;entryDy=0;endArrow=none;endFill=0;strokeWidth=3;" parent="xfuyZNF-amqBoasYQLIJ-1" source="xfuyZNF-amqBoasYQLIJ-115" target="xfuyZNF-amqBoasYQLIJ-112" edge="1">
                    <mxGeometry relative="1" as="geometry"/>
                </mxCell>
                <mxCell id="xfuyZNF-amqBoasYQLIJ-115" value="&lt;font style=&quot;font-size: 20px&quot;&gt;&lt;br&gt;&lt;/font&gt;" style="shape=loopLimit;whiteSpace=wrap;html=1;strokeWidth=3;size=40;rotation=-180;" parent="xfuyZNF-amqBoasYQLIJ-1" vertex="1">
                    <mxGeometry x="60" y="740" width="200" height="80" as="geometry"/>
                </mxCell>
                <mxCell id="xfuyZNF-amqBoasYQLIJ-116" value="&lt;font style=&quot;font-size: 20px&quot;&gt;i++&lt;/font&gt;" style="text;html=1;strokeColor=none;fillColor=none;align=center;verticalAlign=middle;whiteSpace=wrap;rounded=0;" parent="xfuyZNF-amqBoasYQLIJ-1" vertex="1">
                    <mxGeometry x="140" y="770" width="40" height="20" as="geometry"/>
                </mxCell>
                <mxCell id="xfuyZNF-amqBoasYQLIJ-117" value="&lt;font style=&quot;font-size: 20px&quot;&gt;j++&lt;/font&gt;" style="text;html=1;strokeColor=none;fillColor=none;align=center;verticalAlign=middle;whiteSpace=wrap;rounded=0;" parent="xfuyZNF-amqBoasYQLIJ-1" vertex="1">
                    <mxGeometry x="140" y="680" width="40" height="20" as="geometry"/>
                </mxCell>
                <mxCell id="xfuyZNF-amqBoasYQLIJ-118" value="&lt;font style=&quot;font-size: 20px&quot;&gt;k++&lt;/font&gt;" style="text;html=1;strokeColor=none;fillColor=none;align=center;verticalAlign=middle;whiteSpace=wrap;rounded=0;" parent="xfuyZNF-amqBoasYQLIJ-1" vertex="1">
                    <mxGeometry x="140" y="590" width="40" height="20" as="geometry"/>
                </mxCell>
            </root>
        </mxGraphModel>
    </diagram>
    <diagram id="PmveESJrvmYmnhNUoadR" name="Levenshtein">
        <mxGraphModel dx="880" dy="627" grid="1" gridSize="10" guides="1" tooltips="1" connect="1" arrows="1" fold="1" page="1" pageScale="1" pageWidth="827" pageHeight="1169" math="0" shadow="0">
            <root>
                <mxCell id="0"/>
                <mxCell id="1" parent="0"/>
                <mxCell id="mYuJXEGU9Kz4XH0SFxhp-125" value="" style="shape=curlyBracket;whiteSpace=wrap;html=1;rounded=1;strokeWidth=3;" parent="1" vertex="1">
                    <mxGeometry x="370" y="480" width="20" height="160" as="geometry"/>
                </mxCell>
                <mxCell id="mYuJXEGU9Kz4XH0SFxhp-83" value="&lt;font style=&quot;font-size: 20px&quot;&gt;a&lt;sub&gt;21&lt;/sub&gt;&lt;/font&gt;" style="rounded=0;whiteSpace=wrap;html=1;strokeWidth=3;" parent="1" vertex="1">
                    <mxGeometry x="40" y="520" width="120" height="40" as="geometry"/>
                </mxCell>
                <mxCell id="mYuJXEGU9Kz4XH0SFxhp-84" value="&lt;font style=&quot;font-size: 20px&quot;&gt;a&lt;sub&gt;22&lt;/sub&gt;&lt;/font&gt;" style="rounded=0;whiteSpace=wrap;html=1;strokeWidth=3;" parent="1" vertex="1">
                    <mxGeometry x="160" y="520" width="120" height="40" as="geometry"/>
                </mxCell>
                <mxCell id="mYuJXEGU9Kz4XH0SFxhp-87" value="&lt;font style=&quot;font-size: 20px&quot;&gt;b&lt;sub&gt;21&lt;/sub&gt;&lt;/font&gt;" style="rounded=0;whiteSpace=wrap;html=1;strokeWidth=3;" parent="1" vertex="1">
                    <mxGeometry x="400" y="360" width="120" height="40" as="geometry"/>
                </mxCell>
                <mxCell id="mYuJXEGU9Kz4XH0SFxhp-88" value="&lt;font&gt;&lt;sub&gt;&lt;span style=&quot;font-size: 20px&quot;&gt;b11&lt;/span&gt;&lt;/sub&gt;&lt;/font&gt;" style="rounded=0;whiteSpace=wrap;html=1;strokeWidth=3;" parent="1" vertex="1">
                    <mxGeometry x="400" y="320" width="120" height="40" as="geometry"/>
                </mxCell>
                <mxCell id="mYuJXEGU9Kz4XH0SFxhp-89" value="&lt;font style=&quot;font-size: 20px&quot;&gt;b&lt;sub&gt;12&lt;/sub&gt;&lt;/font&gt;" style="rounded=0;whiteSpace=wrap;html=1;strokeWidth=3;fillColor=#fff2cc;strokeColor=#d6b656;" parent="1" vertex="1">
                    <mxGeometry x="520" y="320" width="120" height="40" as="geometry"/>
                </mxCell>
                <mxCell id="mYuJXEGU9Kz4XH0SFxhp-90" value="&lt;font style=&quot;font-size: 20px&quot;&gt;b&lt;sub&gt;13&lt;/sub&gt;&lt;/font&gt;" style="rounded=0;whiteSpace=wrap;html=1;strokeWidth=3;fillColor=#d5e8d4;strokeColor=#82b366;" parent="1" vertex="1">
                    <mxGeometry x="640" y="320" width="120" height="40" as="geometry"/>
                </mxCell>
                <mxCell id="mYuJXEGU9Kz4XH0SFxhp-92" value="&lt;font style=&quot;font-size: 20px&quot;&gt;a&lt;sub&gt;41&lt;/sub&gt;&lt;/font&gt;" style="rounded=0;whiteSpace=wrap;html=1;strokeWidth=3;" parent="1" vertex="1">
                    <mxGeometry x="40" y="600" width="120" height="40" as="geometry"/>
                </mxCell>
                <mxCell id="mYuJXEGU9Kz4XH0SFxhp-93" value="&lt;font style=&quot;font-size: 20px&quot;&gt;a&lt;sub&gt;42&lt;/sub&gt;&lt;/font&gt;" style="rounded=0;whiteSpace=wrap;html=1;strokeWidth=3;" parent="1" vertex="1">
                    <mxGeometry x="160" y="600" width="120" height="40" as="geometry"/>
                </mxCell>
                <mxCell id="mYuJXEGU9Kz4XH0SFxhp-94" value="&lt;font&gt;&lt;span style=&quot;font-size: 20px&quot;&gt;c&lt;sub&gt;11&lt;/sub&gt;&lt;/span&gt;&lt;/font&gt;" style="rounded=0;whiteSpace=wrap;html=1;strokeWidth=3;" parent="1" vertex="1">
                    <mxGeometry x="400" y="480" width="120" height="40" as="geometry"/>
                </mxCell>
                <mxCell id="mYuJXEGU9Kz4XH0SFxhp-96" value="&lt;font style=&quot;font-size: 20px&quot;&gt;c&lt;sub&gt;21&lt;/sub&gt;&lt;/font&gt;" style="rounded=0;whiteSpace=wrap;html=1;strokeWidth=3;" parent="1" vertex="1">
                    <mxGeometry x="400" y="520" width="120" height="40" as="geometry"/>
                </mxCell>
                <mxCell id="mYuJXEGU9Kz4XH0SFxhp-97" value="&lt;font style=&quot;font-size: 20px&quot;&gt;c&lt;sub&gt;22&lt;/sub&gt;&lt;/font&gt;" style="rounded=0;whiteSpace=wrap;html=1;strokeWidth=3;" parent="1" vertex="1">
                    <mxGeometry x="520" y="520" width="120" height="40" as="geometry"/>
                </mxCell>
                <mxCell id="mYuJXEGU9Kz4XH0SFxhp-98" value="&lt;font style=&quot;font-size: 20px&quot;&gt;c&lt;sub&gt;31&lt;/sub&gt;&lt;/font&gt;" style="rounded=0;whiteSpace=wrap;html=1;strokeWidth=3;" parent="1" vertex="1">
                    <mxGeometry x="400" y="560" width="120" height="40" as="geometry"/>
                </mxCell>
                <mxCell id="mYuJXEGU9Kz4XH0SFxhp-99" value="&lt;font style=&quot;font-size: 20px&quot;&gt;c&lt;sub&gt;32&lt;/sub&gt;&lt;/font&gt;" style="rounded=0;whiteSpace=wrap;html=1;strokeWidth=3;" parent="1" vertex="1">
                    <mxGeometry x="520" y="560" width="120" height="40" as="geometry"/>
                </mxCell>
                <mxCell id="mYuJXEGU9Kz4XH0SFxhp-100" value="&lt;font style=&quot;font-size: 20px&quot;&gt;c&lt;sub&gt;41&lt;/sub&gt;&lt;/font&gt;" style="rounded=0;whiteSpace=wrap;html=1;strokeWidth=3;" parent="1" vertex="1">
                    <mxGeometry x="400" y="600" width="120" height="40" as="geometry"/>
                </mxCell>
                <mxCell id="mYuJXEGU9Kz4XH0SFxhp-101" value="&lt;font style=&quot;font-size: 20px&quot;&gt;c&lt;sub&gt;42&lt;/sub&gt;&lt;/font&gt;" style="rounded=0;whiteSpace=wrap;html=1;strokeWidth=3;" parent="1" vertex="1">
                    <mxGeometry x="520" y="600" width="120" height="40" as="geometry"/>
                </mxCell>
                <mxCell id="mYuJXEGU9Kz4XH0SFxhp-102" value="&lt;font style=&quot;font-size: 20px&quot;&gt;c&lt;sub&gt;12&lt;/sub&gt;&lt;/font&gt;" style="rounded=0;whiteSpace=wrap;html=1;strokeWidth=3;" parent="1" vertex="1">
                    <mxGeometry x="640" y="480" width="120" height="40" as="geometry"/>
                </mxCell>
                <mxCell id="mYuJXEGU9Kz4XH0SFxhp-103" value="&lt;font style=&quot;font-size: 20px&quot;&gt;c&lt;sub&gt;22&lt;/sub&gt;&lt;/font&gt;" style="rounded=0;whiteSpace=wrap;html=1;strokeWidth=3;" parent="1" vertex="1">
                    <mxGeometry x="640" y="520" width="120" height="40" as="geometry"/>
                </mxCell>
                <mxCell id="mYuJXEGU9Kz4XH0SFxhp-105" value="&lt;font style=&quot;font-size: 20px&quot;&gt;c&lt;sub&gt;42&lt;/sub&gt;&lt;/font&gt;" style="rounded=0;whiteSpace=wrap;html=1;strokeWidth=3;" parent="1" vertex="1">
                    <mxGeometry x="640" y="600" width="120" height="40" as="geometry"/>
                </mxCell>
                <mxCell id="mYuJXEGU9Kz4XH0SFxhp-104" value="&lt;font style=&quot;font-size: 20px&quot;&gt;c&lt;sub&gt;32&lt;/sub&gt;&lt;/font&gt;" style="rounded=0;whiteSpace=wrap;html=1;strokeWidth=3;fillColor=#d5e8d4;strokeColor=#82b366;" parent="1" vertex="1">
                    <mxGeometry x="640" y="560" width="120" height="40" as="geometry"/>
                </mxCell>
                <mxCell id="mYuJXEGU9Kz4XH0SFxhp-85" value="&lt;font style=&quot;font-size: 20px&quot;&gt;a&lt;sub&gt;31&lt;/sub&gt;&lt;/font&gt;" style="rounded=0;whiteSpace=wrap;html=1;strokeWidth=3;fillColor=#d5e8d4;strokeColor=#82b366;" parent="1" vertex="1">
                    <mxGeometry x="40" y="560" width="120" height="40" as="geometry"/>
                </mxCell>
                <mxCell id="mYuJXEGU9Kz4XH0SFxhp-86" value="&lt;font style=&quot;font-size: 20px&quot;&gt;a&lt;sub&gt;32&lt;/sub&gt;&lt;/font&gt;" style="rounded=0;whiteSpace=wrap;html=1;strokeWidth=3;fillColor=#d5e8d4;strokeColor=#82b366;" parent="1" vertex="1">
                    <mxGeometry x="160" y="560" width="120" height="40" as="geometry"/>
                </mxCell>
                <mxCell id="mYuJXEGU9Kz4XH0SFxhp-106" value="" style="shape=flexArrow;endArrow=classic;html=1;width=4.660194174757281;endSize=5.419417475728155;endWidth=7.056272975775285;fillColor=#e1d5e7;strokeColor=#9673a6;" parent="1" edge="1">
                    <mxGeometry width="50" height="50" relative="1" as="geometry">
                        <mxPoint x="320" y="500" as="sourcePoint"/>
                        <mxPoint x="510" y="500" as="targetPoint"/>
                    </mxGeometry>
                </mxCell>
                <mxCell id="mYuJXEGU9Kz4XH0SFxhp-107" value="" style="shape=flexArrow;endArrow=classic;html=1;width=4.660194174757281;endSize=5.419417475728155;endWidth=7.056272975775285;fillColor=#f8cecc;strokeColor=#b85450;" parent="1" edge="1">
                    <mxGeometry width="50" height="50" relative="1" as="geometry">
                        <mxPoint x="320" y="580" as="sourcePoint"/>
                        <mxPoint x="630" y="580" as="targetPoint"/>
                    </mxGeometry>
                </mxCell>
                <mxCell id="mYuJXEGU9Kz4XH0SFxhp-109" value="" style="shape=flexArrow;endArrow=classic;html=1;width=4.660194174757281;endSize=5.419417475728155;endWidth=7.056272975775285;fillColor=#e1d5e7;strokeColor=#9673a6;" parent="1" edge="1">
                    <mxGeometry width="50" height="50" relative="1" as="geometry">
                        <mxPoint x="580" y="410" as="sourcePoint"/>
                        <mxPoint x="580" y="470" as="targetPoint"/>
                    </mxGeometry>
                </mxCell>
                <mxCell id="mYuJXEGU9Kz4XH0SFxhp-113" value="" style="shape=flexArrow;endArrow=classic;html=1;width=4.660194174757281;endSize=5.419417475728155;endWidth=7.056272975775285;fillColor=#f8cecc;strokeColor=#b85450;" parent="1" edge="1">
                    <mxGeometry width="50" height="50" relative="1" as="geometry">
                        <mxPoint x="700" y="410" as="sourcePoint"/>
                        <mxPoint x="700" y="550" as="targetPoint"/>
                    </mxGeometry>
                </mxCell>
                <mxCell id="mYuJXEGU9Kz4XH0SFxhp-114" value="" style="shape=curlyBracket;whiteSpace=wrap;html=1;rounded=1;strokeWidth=3;" parent="1" vertex="1">
                    <mxGeometry x="10" y="480" width="20" height="160" as="geometry"/>
                </mxCell>
                <mxCell id="mYuJXEGU9Kz4XH0SFxhp-116" value="" style="shape=curlyBracket;whiteSpace=wrap;html=1;rounded=1;flipH=1;strokeWidth=3;" parent="1" vertex="1">
                    <mxGeometry x="290" y="480" width="20" height="160" as="geometry"/>
                </mxCell>
                <mxCell id="mYuJXEGU9Kz4XH0SFxhp-118" value="&lt;font style=&quot;font-size: 20px&quot;&gt;A&lt;/font&gt;" style="text;html=1;strokeColor=none;fillColor=none;align=center;verticalAlign=middle;whiteSpace=wrap;rounded=0;" parent="1" vertex="1">
                    <mxGeometry x="140" y="650" width="40" height="20" as="geometry"/>
                </mxCell>
                <mxCell id="mYuJXEGU9Kz4XH0SFxhp-119" value="" style="shape=curlyBracket;whiteSpace=wrap;html=1;rounded=1;strokeWidth=3;" parent="1" vertex="1">
                    <mxGeometry x="370" y="320" width="20" height="80" as="geometry"/>
                </mxCell>
                <mxCell id="mYuJXEGU9Kz4XH0SFxhp-120" value="" style="shape=curlyBracket;whiteSpace=wrap;html=1;rounded=1;flipH=1;strokeWidth=3;" parent="1" vertex="1">
                    <mxGeometry x="770" y="320" width="20" height="80" as="geometry"/>
                </mxCell>
                <mxCell id="mYuJXEGU9Kz4XH0SFxhp-123" value="&lt;font style=&quot;font-size: 20px&quot;&gt;B&lt;/font&gt;" style="text;html=1;strokeColor=none;fillColor=none;align=center;verticalAlign=middle;whiteSpace=wrap;rounded=0;" parent="1" vertex="1">
                    <mxGeometry x="560" y="290" width="40" height="20" as="geometry"/>
                </mxCell>
                <mxCell id="mYuJXEGU9Kz4XH0SFxhp-124" value="&lt;font style=&quot;font-size: 20px&quot;&gt;C&lt;/font&gt;" style="text;html=1;strokeColor=none;fillColor=none;align=center;verticalAlign=middle;whiteSpace=wrap;rounded=0;" parent="1" vertex="1">
                    <mxGeometry x="560" y="650" width="40" height="20" as="geometry"/>
                </mxCell>
                <mxCell id="mYuJXEGU9Kz4XH0SFxhp-126" value="" style="shape=curlyBracket;whiteSpace=wrap;html=1;rounded=1;flipH=1;strokeWidth=3;" parent="1" vertex="1">
                    <mxGeometry x="770" y="480" width="20" height="160" as="geometry"/>
                </mxCell>
                <mxCell id="mYuJXEGU9Kz4XH0SFxhp-82" value="&lt;font style=&quot;font-size: 20px&quot;&gt;b&lt;sub&gt;22&lt;/sub&gt;&lt;/font&gt;" style="rounded=0;whiteSpace=wrap;html=1;strokeWidth=3;fillColor=#fff2cc;strokeColor=#d6b656;" parent="1" vertex="1">
                    <mxGeometry x="520" y="360" width="120" height="40" as="geometry"/>
                </mxCell>
                <mxCell id="mYuJXEGU9Kz4XH0SFxhp-91" value="&lt;font style=&quot;font-size: 20px&quot;&gt;b&lt;sub&gt;23&lt;/sub&gt;&lt;/font&gt;" style="rounded=0;whiteSpace=wrap;html=1;strokeWidth=3;fillColor=#d5e8d4;strokeColor=#82b366;" parent="1" vertex="1">
                    <mxGeometry x="640" y="360" width="120" height="40" as="geometry"/>
                </mxCell>
                <mxCell id="7" value="&lt;font style=&quot;font-size: 20px&quot;&gt;a&lt;sub&gt;11&lt;/sub&gt;&lt;/font&gt;" style="rounded=0;whiteSpace=wrap;html=1;strokeWidth=3;fillColor=#fff2cc;strokeColor=#d6b656;" parent="1" vertex="1">
                    <mxGeometry x="40" y="480" width="120" height="40" as="geometry"/>
                </mxCell>
                <mxCell id="mYuJXEGU9Kz4XH0SFxhp-81" value="&lt;font style=&quot;font-size: 20px&quot;&gt;a&lt;sub&gt;12&lt;/sub&gt;&lt;/font&gt;" style="rounded=0;whiteSpace=wrap;html=1;strokeWidth=3;fillColor=#fff2cc;strokeColor=#d6b656;" parent="1" vertex="1">
                    <mxGeometry x="160" y="480" width="120" height="40" as="geometry"/>
                </mxCell>
                <mxCell id="mYuJXEGU9Kz4XH0SFxhp-95" value="&lt;font style=&quot;font-size: 20px&quot;&gt;c&lt;sub&gt;12&lt;/sub&gt;&lt;/font&gt;" style="rounded=0;whiteSpace=wrap;html=1;strokeWidth=3;fillColor=#fff2cc;strokeColor=#d6b656;" parent="1" vertex="1">
                    <mxGeometry x="520" y="480" width="120" height="40" as="geometry"/>
                </mxCell>
            </root>
        </mxGraphModel>
    </diagram>
</mxfile>